<svg xmlns="http://www.w3.org/2000/svg" xmlns:xlink="http://www.w3.org/1999/xlink" viewBox="0 0 1170.22 701.4"><defs><style>.cls-1,.cls-3,.cls-43,.cls-88{fill:none;}.cls-2{isolation:isolate;}.cls-3{stroke:#aeaeae;}.cls-3,.cls-43,.cls-88{stroke-miterlimit:10;}.cls-3,.cls-88{stroke-width:2px;}.cls-4{font-size:30.08px;fill:#aeaeae;}.cls-30,.cls-4,.cls-89{font-family:EuropeExt-Bold, EuropeExt;}.cls-30,.cls-4,.cls-89,.cls-9{font-weight:700;}.cls-5{letter-spacing:-0.05em;}.cls-6{fill:gray;mix-blend-mode:multiply;}.cls-48,.cls-7,.cls-89{fill:#fff;}.cls-8{clip-path:url(#clip-path);}.cls-9{font-size:13.47px;font-family:Circe-Bold, Circe Bold;}.cls-30,.cls-41,.cls-9{fill:#858585;}.cls-10{letter-spacing:0.01em;}.cls-11{letter-spacing:0em;}.cls-12{letter-spacing:0.02em;}.cls-13{letter-spacing:-0.01em;}.cls-14{letter-spacing:0.01em;}.cls-15{letter-spacing:0.02em;}.cls-16{letter-spacing:0em;}.cls-17{letter-spacing:0em;}.cls-18{letter-spacing:0em;}.cls-19{letter-spacing:-0.02em;}.cls-20{letter-spacing:0.01em;}.cls-21{letter-spacing:0.02em;}.cls-22{letter-spacing:-0.01em;}.cls-23{letter-spacing:-0.01em;}.cls-24{letter-spacing:0em;}.cls-25{letter-spacing:-0.01em;}.cls-26{letter-spacing:0em;}.cls-27{letter-spacing:-0.02em;}.cls-28{letter-spacing:-0.01em;}.cls-29{letter-spacing:-0.01em;}.cls-30{font-size:15.88px;}.cls-31{letter-spacing:0.01em;}.cls-32{letter-spacing:0em;}.cls-33{letter-spacing:-0.05em;}.cls-34{letter-spacing:-0.06em;}.cls-35{letter-spacing:0em;}.cls-36{letter-spacing:-0.02em;}.cls-37{letter-spacing:0.03em;}.cls-38{letter-spacing:-0.1em;}.cls-39{letter-spacing:-0.05em;}.cls-40{clip-path:url(#clip-path-2);}.cls-42{clip-path:url(#clip-path-4);}.cls-43{stroke:#858585;}.cls-44{clip-path:url(#clip-path-5);}.cls-45{letter-spacing:-0.07em;}.cls-46{clip-path:url(#clip-path-6);}.cls-47{clip-path:url(#clip-path-7);}.cls-48{font-size:14px;font-family:Circe-Regular, Circe;}.cls-49{letter-spacing:0.01em;}.cls-50{letter-spacing:-0.01em;}.cls-51{letter-spacing:-0.02em;}.cls-52{letter-spacing:0.01em;}.cls-53{letter-spacing:0.02em;}.cls-54{letter-spacing:-0.05em;}.cls-55{letter-spacing:-0.01em;}.cls-56{letter-spacing:-0.01em;}.cls-57{letter-spacing:0em;}.cls-58{letter-spacing:0.01em;}.cls-59{letter-spacing:0.03em;}.cls-60{letter-spacing:0em;}.cls-61{letter-spacing:0em;}.cls-62{letter-spacing:-0.01em;}.cls-63{letter-spacing:-0.01em;}.cls-64{letter-spacing:0em;}.cls-65{letter-spacing:0em;}.cls-66{letter-spacing:-0.04em;}.cls-67{letter-spacing:-0.13em;}.cls-68{letter-spacing:-0.02em;}.cls-69{letter-spacing:-0.02em;}.cls-70{letter-spacing:-0.02em;}.cls-71{letter-spacing:-0.01em;}.cls-72{letter-spacing:-0.01em;}.cls-73{letter-spacing:-0.02em;}.cls-74{letter-spacing:-0.02em;}.cls-75{letter-spacing:-0.01em;}.cls-76{letter-spacing:-0.02em;}.cls-77{letter-spacing:-0.01em;}.cls-78{letter-spacing:0.01em;}.cls-79{letter-spacing:-0.04em;}.cls-80{letter-spacing:0em;}.cls-81{letter-spacing:-0.02em;}.cls-82{letter-spacing:-0.02em;}.cls-83{letter-spacing:-0.01em;}.cls-84{letter-spacing:-0.01em;}.cls-85{letter-spacing:0em;}.cls-86{letter-spacing:-0.02em;}.cls-87{letter-spacing:-0.02em;}.cls-88{stroke:#fff;}.cls-89{font-size:16.78px;}</style><clipPath id="clip-path"><rect class="cls-1" x="206.89" y="411.68" width="95.04" height="78.43"/></clipPath><clipPath id="clip-path-2"><rect class="cls-1" x="51.5" y="86.07" width="71.01" height="72.6"/></clipPath><clipPath id="clip-path-4"><rect class="cls-1" x="777.46" y="71.78" width="63.38" height="85.14"/></clipPath><clipPath id="clip-path-5"><rect class="cls-1" x="410.86" y="239.98" width="65.59" height="57.57"/></clipPath><clipPath id="clip-path-6"><rect class="cls-1" x="54.74" y="239.96" width="75.94" height="57.61"/></clipPath><clipPath id="clip-path-7"><rect class="cls-1" x="782.35" y="240.9" width="64.21" height="64.25"/></clipPath></defs><title>Ресурс 2</title><g class="cls-2"><g id="Слой_2" data-name="Слой 2"><g id="НОВОСТИ"><path class="cls-3" d="M614.81,14.62h498.05c31.13,0,56.36,23.1,56.36,51.6V648.81c0,28.49-25.23,51.59-56.36,51.59H57.36C26.23,700.4,1,677.3,1,648.81V66.22c0-28.5,25.23-51.6,56.36-51.6H78.94"/><text class="cls-4" transform="translate(95.09 25.48)">ПОЧЕМУ ВЫБИ<tspan class="cls-5" x="295.57" y="0">Р</tspan><tspan x="318.07" y="0">АЮТ НАС</tspan></text><path class="cls-6" d="M1,342.76H1169.22a0,0,0,0,1,0,0V649.43a51,51,0,0,1-51,51H52a51,51,0,0,1-51-51V342.76a0,0,0,0,1,0,0Z"/><path class="cls-7" d="M110,570.22v10.07h.49a3.89,3.89,0,0,0,3.41-1.48,9,9,0,0,0,1.35-4.36h.7V587.4h-.7a9.51,9.51,0,0,0-.92-3.46,4,4,0,0,0-1.63-1.82,6.22,6.22,0,0,0-2.7-.46v7a10.48,10.48,0,0,0,.17,2.5,1.49,1.49,0,0,0,.65.74,3,3,0,0,0,1.53.3h1.48a8,8,0,0,0,8.56-6.5h.67L122,593.53H100.61v-.67h.82a3.49,3.49,0,0,0,1.73-.38,1.67,1.67,0,0,0,.73-.88,7.66,7.66,0,0,0,.2-2.3V573A13.32,13.32,0,0,0,104,571a1.74,1.74,0,0,0-.68-1,3.12,3.12,0,0,0-1.89-.51h-.82v-.68h20.7v7.32h-.69a8.86,8.86,0,0,0-1.49-3.85,5.51,5.51,0,0,0-2.71-1.72,15.15,15.15,0,0,0-3.83-.32Z"/><path class="cls-7" d="M143.64,576.47v13.36a5,5,0,0,0,.36,2.44,2.16,2.16,0,0,0,1.48.61v.65h-6.95v-2.28a8.64,8.64,0,0,1-2.45,2.13,5.63,5.63,0,0,1-2.73.67,4.05,4.05,0,0,1-2.57-.89,4.33,4.33,0,0,1-1.5-2.07,15,15,0,0,1-.39-4.14v-6.77a4.9,4.9,0,0,0-.35-2.41,2.16,2.16,0,0,0-1.49-.62v-.68h7v11.66a9.4,9.4,0,0,0,.18,2.36,1.51,1.51,0,0,0,.54.8,1.45,1.45,0,0,0,.87.27,2.15,2.15,0,0,0,1.19-.34,7.75,7.75,0,0,0,1.75-1.92v-9.12a4.86,4.86,0,0,0-.36-2.41,2.13,2.13,0,0,0-1.48-.62v-.68Z"/><path class="cls-7" d="M156.14,576.47v3.87a12.72,12.72,0,0,1,3-3.51,4.39,4.39,0,0,1,2.46-.87,2.15,2.15,0,0,1,1.63.63,2.45,2.45,0,0,1,.62,1.78,2.76,2.76,0,0,1-.6,1.9,1.82,1.82,0,0,1-1.43.67,2.46,2.46,0,0,1-1.68-.62,9.28,9.28,0,0,0-.84-.69.82.82,0,0,0-.42-.11,1.58,1.58,0,0,0-1,.4,3.8,3.8,0,0,0-1.13,1.77,12.39,12.39,0,0,0-.59,3.91v3.92l0,1a4,4,0,0,0,.13,1.33,1.44,1.44,0,0,0,.65.72,3.63,3.63,0,0,0,1.45.29v.65h-9.22v-.65a2,2,0,0,0,1.51-.61,5.74,5.74,0,0,0,.39-2.75v-9.43a7.44,7.44,0,0,0-.14-1.86,1.54,1.54,0,0,0-.53-.75,2.78,2.78,0,0,0-1.23-.33v-.68Z"/><path class="cls-7" d="M174.14,576a7.93,7.93,0,0,1,4.14,1.15,7.35,7.35,0,0,1,2.91,3.27,10.67,10.67,0,0,1,1,4.63,9.87,9.87,0,0,1-1.84,6.08,7.29,7.29,0,0,1-6.15,3,7,7,0,0,1-5.93-2.7,10,10,0,0,1-2.08-6.26,10.15,10.15,0,0,1,2.12-6.4A7,7,0,0,1,174.14,576Zm.08,1.3a2.12,2.12,0,0,0-1.6.7,4.85,4.85,0,0,0-.88,2.77c-.14,1.39-.21,3.3-.21,5.76a24.58,24.58,0,0,0,.26,3.65,3.5,3.5,0,0,0,.86,2,2,2,0,0,0,1.49.68,2.08,2.08,0,0,0,1.37-.46,3,3,0,0,0,1-1.73,42.75,42.75,0,0,0,.36-7,17.45,17.45,0,0,0-.34-4.26,3.3,3.3,0,0,0-1-1.69A2,2,0,0,0,174.22,577.26Z"/><path class="cls-7" d="M192.51,591.8v6.35a5.07,5.07,0,0,0,.21,1.79,1.31,1.31,0,0,0,.64.69,4.39,4.39,0,0,0,1.72.22v.68h-9.73v-.68a2.24,2.24,0,0,0,1.68-.64,3.84,3.84,0,0,0,.37-2.17V580a4.09,4.09,0,0,0-.42-2.31,2.28,2.28,0,0,0-1.63-.57v-.68h7.16v2.25a6.41,6.41,0,0,1,1.82-1.9,5.29,5.29,0,0,1,2.9-.86,5.49,5.49,0,0,1,3.42,1.19,7.36,7.36,0,0,1,2.35,3.27,12.61,12.61,0,0,1,.8,4.5,13.1,13.1,0,0,1-.83,4.74,6.93,6.93,0,0,1-2.41,3.26,5.9,5.9,0,0,1-3.51,1.13,5.67,5.67,0,0,1-2.63-.63A6.56,6.56,0,0,1,192.51,591.8Zm0-1.84c1,1.48,2.16,2.22,3.35,2.22a1.87,1.87,0,0,0,1.63-1q.94-1.53.95-5.83t-1-6a2.14,2.14,0,0,0-1.87-1.08c-1.22,0-2.23.89-3,2.66Z"/><path class="cls-7" d="M222.25,584.39h-9.36a8.87,8.87,0,0,0,1.81,5.37,3.81,3.81,0,0,0,3,1.51,3.44,3.44,0,0,0,2-.61,7.81,7.81,0,0,0,1.91-2.2l.62.4a10.29,10.29,0,0,1-3.06,4,6.65,6.65,0,0,1-3.89,1.18,6.47,6.47,0,0,1-5.74-2.92,10.28,10.28,0,0,1-1.57-5.84,9.74,9.74,0,0,1,2.3-6.8A7.15,7.15,0,0,1,215.7,576a5.85,5.85,0,0,1,4.5,2.13C221.47,579.51,222.16,581.61,222.25,584.39Zm-4.48-1.22a16.93,16.93,0,0,0-.32-4,3.37,3.37,0,0,0-1-1.66,1.49,1.49,0,0,0-1-.33,1.79,1.79,0,0,0-1.55.93,8,8,0,0,0-1.08,4.45v.64Z"/><path class="cls-7" d="M234.93,591q-3.12,2.75-5.61,2.75a3.29,3.29,0,0,1-2.42-1,3.21,3.21,0,0,1-1-2.4,4.7,4.7,0,0,1,1.68-3.51q1.68-1.56,7.32-4.15V581a8.31,8.31,0,0,0-.21-2.44,2,2,0,0,0-.8-.88,2.47,2.47,0,0,0-1.31-.37,3.37,3.37,0,0,0-2,.53.93.93,0,0,0-.48.77,1.57,1.57,0,0,0,.51.94,2.38,2.38,0,0,1,.7,1.52,2,2,0,0,1-.67,1.52,2.43,2.43,0,0,1-1.74.63,2.8,2.8,0,0,1-1.93-.69,2.13,2.13,0,0,1-.77-1.63,3.73,3.73,0,0,1,1-2.5,6.57,6.57,0,0,1,2.9-1.84,12,12,0,0,1,3.87-.64,6.47,6.47,0,0,1,3.84,1,4.88,4.88,0,0,1,1.83,2.24,14.37,14.37,0,0,1,.26,3.52v6.62a7,7,0,0,0,.09,1.47.91.91,0,0,0,.27.45.64.64,0,0,0,.42.15c.32,0,.64-.23,1-.68l.54.44a6.57,6.57,0,0,1-1.88,2,4.07,4.07,0,0,1-2.22.61,3.5,3.5,0,0,1-2.28-.68A3.09,3.09,0,0,1,234.93,591Zm0-1.34V584a10.65,10.65,0,0,0-3.29,2.78,3.39,3.39,0,0,0-.71,2,2.06,2.06,0,0,0,.6,1.47,1.66,1.66,0,0,0,1.28.5A3.5,3.5,0,0,0,234.93,589.68Z"/><path class="cls-7" d="M252.29,576.47v2.21a9.88,9.88,0,0,1,2.51-2.07,5.44,5.44,0,0,1,2.59-.65,4.12,4.12,0,0,1,2.76.93,4.35,4.35,0,0,1,1.46,2.29,17.9,17.9,0,0,1,.29,4v6.64a5.05,5.05,0,0,0,.36,2.46,2.09,2.09,0,0,0,1.48.61v.65h-8.63v-.65a1.84,1.84,0,0,0,1.39-.8,5.37,5.37,0,0,0,.29-2.27v-7.59a12.38,12.38,0,0,0-.16-2.64,1.62,1.62,0,0,0-.56-.85,1.39,1.39,0,0,0-.87-.3c-1,0-2,.75-2.91,2.24v9.14a5.08,5.08,0,0,0,.35,2.43,1.84,1.84,0,0,0,1.32.64v.65h-8.63v-.65a2.17,2.17,0,0,0,1.54-.7,5.16,5.16,0,0,0,.31-2.37v-9.63a4.86,4.86,0,0,0-.36-2.41,2.16,2.16,0,0,0-1.49-.62v-.68Z"/><path class="cls-7" d="M111.07,617.47v6.93a7.77,7.77,0,0,0,.25,2.53,1.81,1.81,0,0,0,.87.83,5.73,5.73,0,0,0,2.31.31v.68H101.84v-.68a5.73,5.73,0,0,0,2.33-.32,1.87,1.87,0,0,0,.86-.83,7.75,7.75,0,0,0,.24-2.52v-16a7.87,7.87,0,0,0-.24-2.53,1.85,1.85,0,0,0-.87-.83,5.79,5.79,0,0,0-2.32-.31V604h11.5a25.29,25.29,0,0,1,6.57.62,6.71,6.71,0,0,1,3.39,2.29,6.14,6.14,0,0,1,1.31,3.92,5.82,5.82,0,0,1-2,4.52,8.1,8.1,0,0,1-3.52,1.7l5.95,8.38a12.78,12.78,0,0,0,1.66,2,3.11,3.11,0,0,0,1.73.62v.68h-7.79l-8-11.28Zm0-12.13v10.83h1a11.66,11.66,0,0,0,3.8-.46,3.77,3.77,0,0,0,2-1.68,6.13,6.13,0,0,0,.72-3.16,4.8,4.8,0,0,0-5.58-5.53Z"/><path class="cls-7" d="M145,619.6h-9.36a8.78,8.78,0,0,0,1.8,5.37,3.81,3.81,0,0,0,3,1.51,3.44,3.44,0,0,0,2-.61,7.66,7.66,0,0,0,1.91-2.2l.63.4a10.32,10.32,0,0,1-3.07,4,6.63,6.63,0,0,1-3.89,1.18,6.47,6.47,0,0,1-5.74-2.92,10.28,10.28,0,0,1-1.57-5.84,9.7,9.7,0,0,1,2.31-6.8,7.1,7.1,0,0,1,5.41-2.52,5.84,5.84,0,0,1,4.49,2.12Q144.82,615.43,145,619.6Zm-4.49-1.22a16.93,16.93,0,0,0-.32-4,3.37,3.37,0,0,0-1-1.66,1.49,1.49,0,0,0-1-.33,1.79,1.79,0,0,0-1.55.93,8,8,0,0,0-1.08,4.45v.64Z"/><path class="cls-7" d="M159.17,611.89h5.75v2h-3.27a6.1,6.1,0,0,1,1.24,1.63,5,5,0,0,1,.44,2.06,5.15,5.15,0,0,1-1,3.17,6.76,6.76,0,0,1-2.76,2.09,7.81,7.81,0,0,1-3.09.76l-2.19-.09a1.9,1.9,0,0,0-1.38.54,1.74,1.74,0,0,0-.56,1.28,1.34,1.34,0,0,0,.51,1.08,2.53,2.53,0,0,0,1.63.42l3.16,0q3.83,0,5.27.84a3.87,3.87,0,0,1,2.06,3.6,4.63,4.63,0,0,1-.95,2.82,5.54,5.54,0,0,1-2.5,1.87,15.32,15.32,0,0,1-5.42.89,18.13,18.13,0,0,1-4.19-.45,5.75,5.75,0,0,1-2.72-1.24,2.3,2.3,0,0,1-.82-1.67A2.11,2.11,0,0,1,149,632a5,5,0,0,1,2.34-1.12,3.6,3.6,0,0,1-2.37-3.25,3.82,3.82,0,0,1,1-2.45,7.71,7.71,0,0,1,3.06-2.06,7.48,7.48,0,0,1-3.54-2.35,5.49,5.49,0,0,1-1.09-3.38,5.65,5.65,0,0,1,2-4.33,7.57,7.57,0,0,1,5.26-1.83A9.43,9.43,0,0,1,159.17,611.89Zm-4.23,19.37a6.44,6.44,0,0,0-2.47.31,1.72,1.72,0,0,0-1,1.54,2.09,2.09,0,0,0,1.08,1.68,7.53,7.53,0,0,0,4.05.76,9.67,9.67,0,0,0,4-.67A2.11,2.11,0,0,0,162,633a1.09,1.09,0,0,0-.28-.77,2.7,2.7,0,0,0-1.48-.75A39.86,39.86,0,0,0,154.94,631.26Zm1.07-19a2.14,2.14,0,0,0-1.79,1.06c-.48.72-.73,2.19-.73,4.43a6.87,6.87,0,0,0,.72,3.73,2.1,2.1,0,0,0,1.71,1,2.19,2.19,0,0,0,1.83-1,7.27,7.27,0,0,0,.73-3.91c0-2.17-.28-3.66-.83-4.45A1.86,1.86,0,0,0,156,612.31Z"/><path class="cls-7" d="M174.69,611.69v13.52a4,4,0,0,0,.42,2.3,2.24,2.24,0,0,0,1.64.58v.66h-9.22v-.66a2.21,2.21,0,0,0,1.68-.66,4,4,0,0,0,.37-2.22v-10a4,4,0,0,0-.42-2.3,2.24,2.24,0,0,0-1.63-.58v-.67Zm-2.56-8.27a2.82,2.82,0,0,1,2.83,2.83,2.71,2.71,0,0,1-.83,2,2.82,2.82,0,0,1-4-4A2.71,2.71,0,0,1,172.13,603.42Z"/><path class="cls-7" d="M190.31,611.21l.28,5.82H190a9.35,9.35,0,0,0-2.31-3.54,3.86,3.86,0,0,0-2.38-1,1.77,1.77,0,0,0-1.28.51,1.55,1.55,0,0,0-.53,1.15,1.51,1.51,0,0,0,.36.95,17.41,17.41,0,0,0,3.27,2.57,13.25,13.25,0,0,1,3.53,3.08,5,5,0,0,1,.85,2.84,6,6,0,0,1-.71,2.79,5.09,5.09,0,0,1-2,2.1,5.79,5.79,0,0,1-2.86.73,10,10,0,0,1-3.27-.77,2.76,2.76,0,0,0-.75-.2c-.4,0-.73.3-1,.91h-.6l-.29-6.13h.62a7.78,7.78,0,0,0,2.25,3.61,4.29,4.29,0,0,0,2.71,1.21,2,2,0,0,0,1.43-.54,1.75,1.75,0,0,0,.56-1.3,2.29,2.29,0,0,0-.55-1.52,14.54,14.54,0,0,0-2.45-1.93,19.29,19.29,0,0,1-3.61-3,5.16,5.16,0,0,1-1.2-3.3,5.37,5.37,0,0,1,1.36-3.57,4.87,4.87,0,0,1,3.93-1.59,5.72,5.72,0,0,1,2.68.67,1.82,1.82,0,0,0,.8.27.93.93,0,0,0,.53-.13,3.18,3.18,0,0,0,.64-.78Z"/><path class="cls-7" d="M202,605.45v6.24h4v1.8h-4V624a8.07,8.07,0,0,0,.14,1.91,1.4,1.4,0,0,0,.48.69,1.08,1.08,0,0,0,.64.27c.79,0,1.54-.61,2.24-1.81l.55.4c-1,2.34-2.58,3.5-4.8,3.5a4.24,4.24,0,0,1-2.74-.9,4,4,0,0,1-1.44-2,17.35,17.35,0,0,1-.18-3.35v-9.22h-2.22v-.64a23.73,23.73,0,0,0,3.91-3.41,20.46,20.46,0,0,0,2.82-4Z"/><path class="cls-7" d="M223.21,619.6h-9.36a8.84,8.84,0,0,0,1.8,5.37,3.81,3.81,0,0,0,3,1.51,3.42,3.42,0,0,0,2-.61,7.66,7.66,0,0,0,1.92-2.2l.62.4a10.32,10.32,0,0,1-3.07,4,6.62,6.62,0,0,1-3.88,1.18,6.49,6.49,0,0,1-5.75-2.92,10.28,10.28,0,0,1-1.57-5.84,9.7,9.7,0,0,1,2.31-6.8,7.12,7.12,0,0,1,5.41-2.52,5.84,5.84,0,0,1,4.49,2.12C222.43,614.72,223.11,616.82,223.21,619.6Zm-4.49-1.22a16.93,16.93,0,0,0-.32-4,3.29,3.29,0,0,0-1-1.66,1.53,1.53,0,0,0-1-.33,1.79,1.79,0,0,0-1.55.93,8,8,0,0,0-1.07,4.45v.64Z"/><path class="cls-7" d="M233.54,611.69v3.86a12.55,12.55,0,0,1,3-3.51,4.37,4.37,0,0,1,2.46-.86,2.15,2.15,0,0,1,1.63.62,2.45,2.45,0,0,1,.61,1.78,2.76,2.76,0,0,1-.59,1.9,1.83,1.83,0,0,1-1.43.68,2.48,2.48,0,0,1-1.68-.62,8.46,8.46,0,0,0-.84-.7.82.82,0,0,0-.42-.11,1.55,1.55,0,0,0-1,.4,3.8,3.8,0,0,0-1.13,1.77,12.43,12.43,0,0,0-.59,3.91v3.92l0,1a4.09,4.09,0,0,0,.13,1.34,1.48,1.48,0,0,0,.65.72,3.85,3.85,0,0,0,1.45.28v.66h-9.22v-.66a2,2,0,0,0,1.51-.61,5.72,5.72,0,0,0,.39-2.75V615.3a6.91,6.91,0,0,0-.15-1.86,1.47,1.47,0,0,0-.52-.75,2.83,2.83,0,0,0-1.23-.33v-.67Z"/><path class="cls-7" d="M85.37,409.15H73.78c-3.09-.77-4.64-2.32-4.64-5.41a61.19,61.19,0,0,1,7,1.55c3.86.77,8.5.77,9.27,1.54Zm-3.09,11.59a7.44,7.44,0,0,1-7-5.41c0-.77,6.19-.77,7-.77a8.49,8.49,0,0,0,0,6.18m57.18-6.18c-.77,4.64-3.09,5.41-7,6.18a8.49,8.49,0,0,0,0-6.18Zm3.86-4.64c0,2.32-3.09,3.87-4.63,3.87h-6.18c-.78-1.55-2.32-2.32-3.1-3.87Zm-10,17c0,.78,0,1.55-.77,1.55H82.28c-1.55-.77-1.55-1.55-1.55-1.55,7,0,13.91-17.77,26.28-18.54,9.27,0,15.45,8.5,20.86,14.68,1.54,2.32,3.09,3.86,5.41,3.86m-23.18,68a135.56,135.56,0,0,0-.78,17.78A2,2,0,0,1,107,515a1.66,1.66,0,0,1-1.55-1.54c0-7-.77-13.91-.77-20.09-3.09,2.31-7,5.41-7,9.27a11.11,11.11,0,0,0,4.64,7.73c-3.09-1.55-8.5-3.87-8.5-9.28,0-3.86,2.32-7.72,7.73-11.59,2.31,1.55,5.41,3.09,8.5,5.41M86.92,454.74c-14.69-13.13,4.63-27.82,12.36-18.54,3.86,3.86-.77,7.72-2.32,7.72.77-6.18-14.68-1.54-.77,7.73A87.6,87.6,0,0,1,114,463.24c3.09,2.32,6.18,5.41,7,9.27,1.55,7.73-3.09,12.37-8.5,16.23a2.38,2.38,0,0,0-1.54-.77v-5.41c13.91-13.14-17-21.64-24-27.82m16.22-25.5h8.5l-.77,30.14c-2.32-1.55-4.64-2.32-7-3.87,0-9.27,0-17.77-.77-26.27m25.5,6.18c7.73,5.41,5.41,13.91,0,19.32-3.86,2.32-9.27,5.41-13.91,7.73a10.7,10.7,0,0,1-3.09-2.32v-4.64a31,31,0,0,0,7-3.86c13.13-8.5-.78-13.14,0-6.95-10.82-2.32,0-17,10-9.28M141,409.15h-11.6V407.6c.78-.77,2.32-.77,5.41-1.54,3.87-.77,9.28-1.55,11.6-2.32a6.57,6.57,0,0,1-5.41,5.41m-54.09,0a5.24,5.24,0,0,0-3.09-4.64c-5.41-.77-23.19-.77-18.55-10.82,0,0,4.64,1.55,10.82,3.1,3.86,1.54,7.73,2.31,11.59,3.86,4.63,1.54,6.18,5.41,6.18,9.27,0,3.09-2.32,4.64-1.55,6.18a71,71,0,0,0-6.95,7.73v-.77c-7-7,1.55-10.82,1.55-13.91m59.5-7s-13.91,2.32-15.46,2.32c-3.09.78-4.64,5.41-1.55,7.73,3.87,3.86,3.1,7.73,0,10.82,0,.77-5.4-6.18-7-7a1.07,1.07,0,0,0,0-1.54c-3.09-4.64-1.55-8.5,1.55-10.82,3.86-3.86,14.68-6.95,20.09-8.5,2.32-.77,3.86-1.55,5.41-1.55,1.54,3.87.77,7-3.09,8.5m-41.73,63.37c1.54,1.54,3.86,3.09,5.41,4.63v17l-5.41-3.86Zm-3.87-2.32a10.84,10.84,0,0,0,3.09,2.32v4.63c-14.68,13.14,18.55,18.55,17,31.69,0,3.86-4.63,7.72-8.5,9.27a8.5,8.5,0,0,0,4.64-7.73c.77-6.95-15.45-13.91-14.68-13.91-11.59-7.72-12.36-17-1.55-26.27M82.28,413.79H76.1c-2.32,0-4.64-1.55-4.64-3.87H85.37c-.77.77-2.32,3.09-3.09,3.87"/><path class="cls-7" d="M343.05,632c1.48.63,2.93,1.37,4.45,1.88A67.3,67.3,0,0,0,355,636a80.57,80.57,0,0,0,8.35,1.15,43.16,43.16,0,0,0,6.22.27c3.31-.15,6.61-.48,9.9-.81a37.08,37.08,0,0,0,8.56-2c1.44-.5,2.85-1.08,4.25-1.68A37,37,0,0,0,396.3,631a23,23,0,0,0,3.7-2.64,52.61,52.61,0,0,0,5.48-5.28,23.93,23.93,0,0,0,3.91-6.33c.65-1.59,1.22-3.21,1.83-4.82a1.86,1.86,0,0,0,.1-.2c.3-1.28.3-1.28,1.74-1-.18.93-.27,1.89-.54,2.79a46.37,46.37,0,0,1-1.76,5,29,29,0,0,1-5.35,8.06,32.22,32.22,0,0,1-6,5.16,35,35,0,0,1-8.12,4.09c-1.6.54-3.17,1.2-4.81,1.62a48.46,48.46,0,0,1-5.62,1.08c-2.59.34-5.21.52-7.81.76a21,21,0,0,1-3.15.24c-2.28-.13-4.56-.39-6.84-.61-1.5-.15-3-.3-4.48-.54-1.13-.18-2.26-.47-3.37-.76-1.63-.43-3.28-.85-4.88-1.39a43.5,43.5,0,0,1-7.58-3.38,39.63,39.63,0,0,1-7.21-5c-.67-.6-1.16-1.42-1.86-2a33.16,33.16,0,0,1-4.67-5.24,37.33,37.33,0,0,1-5.88-10,40.16,40.16,0,0,1-2.36-7.91c-.41-2.25-.54-4.55-.81-6.83a11.93,11.93,0,0,1-.28-2c.08-1.67.21-3.34.43-5,.33-2.49.62-5,1.16-7.45a38.32,38.32,0,0,1,3.22-8.6A34.61,34.61,0,0,1,333,561.64a54.1,54.1,0,0,1,6.55-4.82,50.5,50.5,0,0,1,6.35-3.12,45.14,45.14,0,0,1,10.91-3.09c3-.49,6-.65,9-1a18.58,18.58,0,0,1,2.76-.28c1.6.07,3.19.25,4.77.46,2.64.35,5.29.66,7.89,1.19a54.22,54.22,0,0,1,6.08,1.79,47.66,47.66,0,0,1,4.51,1.81,28.82,28.82,0,0,1,6.42,3.84c1.47,1.2,3,2.3,4.39,3.61a30.15,30.15,0,0,1,7.53,11.37c.54,1.46.89,3,1.35,4.58a7.11,7.11,0,0,1-.73.07c-6.29,0-12.58,0-18.87,0-.5,0-.72-.11-.88-.62-.31-1-.75-1.92-1.12-2.89a6.18,6.18,0,0,0-2.31-2.6,22.38,22.38,0,0,0-8.38-3.88,36.86,36.86,0,0,0-10.94-.93,35.81,35.81,0,0,0-7.66,1.16,25.72,25.72,0,0,0-8.89,4.29,22.74,22.74,0,0,0-5.84,6.52,27.89,27.89,0,0,0-4,13.1c-.16,3.08.05,6.17.09,9.26a1.12,1.12,0,0,1-.12.6c-.11-.49-.22-1-.32-1.49s-.22-1-.28-1.52a36.21,36.21,0,0,1-.16-10.65c.35-2.05.68-4.12,1.18-6.15a16.31,16.31,0,0,1,1.32-2.89,28.94,28.94,0,0,1,1.29-2.62,22,22,0,0,1,8.65-8.09,26.1,26.1,0,0,1,5.25-2.18A34.76,34.76,0,0,1,373,565.38c2,.29,3.9.63,5.81,1.09,1.31.32,2.55.9,3.89,1.29a6.22,6.22,0,0,0-.7-.48,28.94,28.94,0,0,0-11.25-2.73,42.55,42.55,0,0,0-9.3.52,29.33,29.33,0,0,0-3.79,1,25.34,25.34,0,0,0-3.42,1.24,22.43,22.43,0,0,0-3.19,1.91,28.53,28.53,0,0,0-3.23,2.58,19.29,19.29,0,0,0-2.35,2.74,22,22,0,0,0-3.14,5.85,37.56,37.56,0,0,0-1.65,6.11,68.71,68.71,0,0,0-.5,7.46,32,32,0,0,0,1.4,9.86,26.48,26.48,0,0,0,3.88,8,22,22,0,0,0,7.27,6.5,30.1,30.1,0,0,0,13.08,3.7,38.7,38.7,0,0,0,9.44-.51,25.52,25.52,0,0,0,5.34-1.64,20,20,0,0,0,5.17-3.17,14.59,14.59,0,0,0,4.46-6.45c.33-.95.56-1.94.91-2.88a.88.88,0,0,1,.71-.39c5,0,10,0,15,0h3.94a6.7,6.7,0,0,1,.84.09c-.17.94-.26,1.84-.49,2.7a35.75,35.75,0,0,1-1.28,4.08,48.3,48.3,0,0,1-2.22,4.72,27,27,0,0,1-5,6.38,33.72,33.72,0,0,1-7.42,5.58,28.54,28.54,0,0,1-4.29,2.13c-2.82,1-5.68,1.9-8.58,2.63-6.35,1.58-12.83,1.6-19.31,1.3a60.5,60.5,0,0,1-17-3.68c-1-.39-2-.81-3-1.21Zm48.65-54.67h18c.49,0,.93,0,.74-.7a19.75,19.75,0,0,0-.59-2.2,31,31,0,0,0-4.2-7.89c-.84-1.08-1.73-2.14-2.67-3.13a36.85,36.85,0,0,0-6.9-5.6,48,48,0,0,0-9-4.43A36.81,36.81,0,0,0,382.3,552a53.66,53.66,0,0,0-10-1.5A70.67,70.67,0,0,0,359,551a54.17,54.17,0,0,0-15.36,4.45,41.56,41.56,0,0,0-7.35,4.35,37.07,37.07,0,0,0-9.76,10.66,40.17,40.17,0,0,0-5.89,20.89,88.41,88.41,0,0,0,.49,9.77,36.3,36.3,0,0,0,1.55,6.37,35.18,35.18,0,0,0,4.51,9.51,36.94,36.94,0,0,0,8.3,9,42,42,0,0,0,13,6.85c2.18.68,4.37,1.32,6.59,1.82A55.55,55.55,0,0,0,365.54,636a66.54,66.54,0,0,0,17.74-1.58A47.62,47.62,0,0,0,393,631a34.46,34.46,0,0,0,8.24-5.6,31.54,31.54,0,0,0,5.88-7.19,30.36,30.36,0,0,0,3.6-9.55c.18-.88.15-.94-.75-.94H392.39c-.36,0-.64,0-.77.48a21,21,0,0,1-1,3.14,17.41,17.41,0,0,1-6.66,7.66,23.71,23.71,0,0,1-7.5,3.09,37.22,37.22,0,0,1-11.44.67,29.23,29.23,0,0,1-12.78-3.86,23.82,23.82,0,0,1-8.37-8.32,26.34,26.34,0,0,1-3-7.1c-.57-2.36-.81-4.8-1.2-7.2-.5-3.13,0-6.23.32-9.32a28.22,28.22,0,0,1,1.28-5.3,25.22,25.22,0,0,1,4.88-8.91,23.53,23.53,0,0,1,9.45-6.67,33.79,33.79,0,0,1,11.56-2.29,35.76,35.76,0,0,1,11.64,1.4,29,29,0,0,1,3.82,1.62,14.89,14.89,0,0,1,2.35,1.43,26.33,26.33,0,0,1,3.2,2.65A15.34,15.34,0,0,1,391.7,577.31Z"/><path class="cls-7" d="M347.44,593.75v-9c0-1.06,0-1.08,1.07-1.08,2.18,0,4.36,0,6.54,0a6.25,6.25,0,0,1,6.07,5.56,4.8,4.8,0,0,1-1.46,3.73c-.4.4-.35.62.06.92,2.68,2,2.66,5,1.54,7.41a4.56,4.56,0,0,1-4.07,2.65c-2.09.13-4.2.17-6.3.16-.94,0-1.88-.23-2.83-.28-.58,0-.62-.38-.62-.8v-9.28Zm9.44-.62a5,5,0,0,0,.93-.55,7.5,7.5,0,0,0,1.58-1.82,4.55,4.55,0,0,0,.1-3.39c-.38-1.15-1.75-2.64-2.94-2.71-2.56-.16-5.12-.21-7.69-.32-.5,0-.71.2-.7.7,0,.88,0,1.77,0,2.66q0,7.29,0,14.59c0,.46.12.77.66.75s1.14,0,1.7,0c2,0,4.05-.07,6.08-.19a3.81,3.81,0,0,0,1.94-.59,5.2,5.2,0,0,0,2.11-4.28,4.33,4.33,0,0,0-3.18-4.56A2.68,2.68,0,0,1,356.88,593.13Z"/><path class="cls-7" d="M363.17,593.75c0-3,0-6.09,0-9.14,0-.68.14-1,.89-1,2.33,0,4.66,0,7,0,3.22.11,6.64,3.41,5.57,7.1a5.22,5.22,0,0,1-1.17,2.06c-.51.51-.4.76.05,1.09a5,5,0,0,1,2,3,5.87,5.87,0,0,1-.84,4.71,4.6,4.6,0,0,1-2.35,2,9.13,9.13,0,0,1-2.53.48c-2.33.07-4.66,0-7,0a3.34,3.34,0,0,1-1.38-.37c-.17-.09-.23-.51-.23-.78,0-3.07,0-6.14,0-9.21Zm9.38-.6c.28-.18.49-.34.72-.46,2.66-1.31,2.7-5.18.9-7a5,5,0,0,0-3.51-1.3c-2.05-.08-4.11-.06-6.16-.08-.45,0-.7.18-.68.66s0,1.14,0,1.7q0,7.72-.08,15.44c0,.61.18.89.85.88,2.15,0,4.31,0,6.46,0a4.83,4.83,0,0,0,3.44-1.09,6.82,6.82,0,0,0,1.47-2.23c.77-1.94.31-4.77-1.89-5.85C373.6,593.57,373.1,593.39,372.55,593.15Z"/><path class="cls-7" d="M392.05,583.93l.63,3.08h-4.43c-1.53,0-1.37-.13-1.37,1.34,0,4.88,0,9.76,0,14.64v.88c-1-.06-2-.11-3-.21-.12,0-.29-.36-.29-.55,0-5,0-10.06,0-15.08,0-1,0-1-1-1-1.32,0-2.65-.12-4-.15-.41,0-.59-.15-.58-.56,0-.64,0-1.29,0-1.93,0-.2.33-.52.51-.52,4.46,0,8.92,0,13.37,0C391.94,583.86,392,583.9,392.05,583.93Zm-7.83,18.82c1.53.38,1.66.28,1.65-1.14,0-5,0-10,0-15a4.48,4.48,0,0,1,.06-.56h.77c1.38,0,2.77,0,4.15,0,.52,0,.7-.18.71-.68s-.2-.76-.79-.76c-3.83,0-7.67,0-11.5,0-.22,0-.43,0-.66.05v1.38h5.61Z"/><path class="cls-7" d="M412.38,578.74l.3,1.92c-.4,0-.68.08-1,.08h-17c-1.1,0-1.69-.7-1.59-2Z"/><path class="cls-7" d="M349.8,601.43c0-2.36,0-4.63,0-6.9a.59.59,0,0,1,.37-.42q3,0,6,.16a2.79,2.79,0,0,1,2.29,1.78,3.71,3.71,0,0,1-1,4.76,2.71,2.71,0,0,1-1.47.59C354,601.47,351.94,601.43,349.8,601.43Zm3.81-6.27v0h-1.78c-.55,0-.79.21-.78.79,0,1.31,0,2.62,0,3.93,0,.62.22.83.82.81,1.3-.05,2.61-.06,3.92-.09A2.23,2.23,0,0,0,358,599a5.88,5.88,0,0,0,0-2.4,1.44,1.44,0,0,0-1.28-1.26C355.68,595.26,354.64,595.22,353.61,595.16Z"/><path class="cls-7" d="M349.79,592.51c0-1.78,0-3.48,0-5.18,0-1.4,0-1.41,1.42-1.39s2.86.06,4.29.12a2.6,2.6,0,0,1,2.52,2.63,6.23,6.23,0,0,1-.18,2,2.81,2.81,0,0,1-2.74,1.76C353.38,592.58,351.65,592.51,349.79,592.51Zm1.27-.81c1.41,0,2.72,0,4,0a2.36,2.36,0,0,0,2.38-1.81c.38-1.33-.45-2.85-1.63-2.88-1.39,0-2.78,0-4.16,0a.84.84,0,0,0-.59.55C351,588.92,351.06,590.25,351.06,591.7Z"/><path class="cls-7" d="M365.57,594.1c2,0,3.83-.12,5.67,0a3.23,3.23,0,0,1,3.28,3.13A3.56,3.56,0,0,1,372,601.4a.83.83,0,0,1-.22,0h-6.2Zm1.25,3.81h0c0,.7,0,1.39,0,2.08s.23.75.73.75c.87,0,1.73,0,2.6,0a8.09,8.09,0,0,0,1.91-.16c1.85-.52,2.2-2.42,1.61-4a1.51,1.51,0,0,0-1.37-1.16l-3.11-.13a12,12,0,0,1-1.47-.07c-.59-.09-.89.1-.89.71Z"/><path class="cls-7" d="M365.57,592.51a3.81,3.81,0,0,1-.07-.44v-6a5.52,5.52,0,0,1,.9-.14c1.71,0,3.42,0,5.12.15a2.43,2.43,0,0,1,2.11,1.91c.42,1.45.28,3.11-1.14,3.94a3.76,3.76,0,0,1-1.66.55C369.1,592.55,367.37,592.51,365.57,592.51Zm1.25-.81c1.41,0,2.7,0,4,0a2.21,2.21,0,0,0,2.39-2.57c-.1-1.29-.44-2-1.6-2.1-1.4,0-2.82,0-4.22,0-.19,0-.52.28-.52.43C366.8,588.85,366.82,590.23,366.82,591.7Z"/><g class="cls-8"><path class="cls-7" d="M277.35,451.42c.21,1.6.4,3.72.78,5.81a3.85,3.85,0,0,0,3,3,8.11,8.11,0,0,0,5-.09,4.1,4.1,0,0,0,3-3.37,35.27,35.27,0,0,0,.17-10.51c-.59-4.07-3.3-4.91-6.31-4.8a7.52,7.52,0,0,0-2,.44,4.11,4.11,0,0,0-3.05,3.5c-.26,1.81-.32,3.64-.51,6m24.58-.37a25.52,25.52,0,0,1-1.46,8.18,12.34,12.34,0,0,1-7.08,7.61c-6.73,2.79-13.48,2.91-20.16-.28a13.87,13.87,0,0,1-7.73-10,25.47,25.47,0,0,1,.16-11.65,13.35,13.35,0,0,1,8.49-10,24.06,24.06,0,0,1,18.94.24c4.83,2.07,7.48,5.86,8.31,11,.26,1.61.36,3.24.53,4.86"/><path class="cls-7" d="M238.6,465.68c-.08,1-.14,1.58-.2,2.31h-7.08V455.8h6.62a11,11,0,0,0,4.6,4.07,13.66,13.66,0,0,0,8.42,1.07,5.53,5.53,0,0,0,1.68-.6,1,1,0,0,0,.1-1.81,8.19,8.19,0,0,0-2.15-1c-3.6-1.12-7.21-2.2-10.82-3.27a15.85,15.85,0,0,1-5.92-3.32c-4.55-4-3.79-13.23,2.22-16a17.24,17.24,0,0,1,6.71-1.74,20.86,20.86,0,0,1,6.64.57c1.46.45,2.87,1.07,4.29,1.63.49.19.95.42,1.56.7.09-.74.15-1.27.22-1.9h6.87v11.27H255.5c-2.76-3.62-6.75-4.81-11.18-4.95-1.31,0-2.6.19-3.14,1.7.24,1.17,1.12,1.57,2.11,1.86,4,1.16,8,2.25,12,3.51,3.79,1.21,6.77,3.56,7.88,7.49,1.53,5.43-.76,10.94-7,12.86a21.1,21.1,0,0,1-16-1.57l-1.51-.74"/><path class="cls-7" d="M223.71,460.05h4.95v8H207v-7.93h4.69c.46-1.31.51-16.74.09-18.39h-4.86v-8.1H228.6v8.1h-4.89Z"/><path class="cls-7" d="M230.62,481.46c.24.39.29.55.4.63a35.08,35.08,0,0,0,11,5.38,1.2,1.2,0,0,0,1.63-.83l-9.32-7.32-3.73,2.14m32.06,5.18a1.43,1.43,0,0,0,1.87.8A37.34,37.34,0,0,0,275,482.35a5.43,5.43,0,0,0,.8-1L272,479.27l-9.29,7.37m-1,1.28c-3.58-4.07-14-3.66-16.9-.07,1.54,1.64,14.34,1.72,16.9.07m-3-3.09,2.53,1a32.43,32.43,0,0,0,9.25-7.18,21.49,21.49,0,0,0-6.42-2.24l-5.36,8.41m-22.92-6.22a9.54,9.54,0,0,0,1.05,1.26c2.31,1.78,4.6,3.58,7,5.26,1.42,1,2.51.76,3.8-.63l-5.29-8.29-6.53,2.4m8-2.5a42.34,42.34,0,0,0,5.52,8.28l3.27-.51c.35-2.45.23-7.9-.22-9a31.7,31.7,0,0,0-8.57,1.21m18.84,0a30,30,0,0,0-8.84-1.17c0,3.12-.1,6,.06,9l3.54.4a33.11,33.11,0,0,0,5.24-8.25m-42.5-3.72h1.26a39.87,39.87,0,0,0,8,8.51l4.28-2.45-4.33-5.86c.89-.57,1.26-.07,1.66.47q1.63,2.11,3.32,4.2a4.91,4.91,0,0,0,.57.52l7.09-2.57-1.25-2.76,1-.14,1.4,2.56,9.29-1.13c.12-.36.25-.77.4-1.27l.72-.1c.1.45.19.87.29,1.3l9.29,1.22c1.05-.42.55-2.53,2.51-2.52-.36,1-.68,1.81-1.06,2.85l7,2.56,4.21-5.36,1-.06c-1.05,2.23-2.69,3.92-4.16,6l4.32,2.5a38.29,38.29,0,0,0,8-8.4l1.3-.06c-7.63,10.89-17.75,16.93-30.88,17.68a38.56,38.56,0,0,1-22.64-5.53,39.21,39.21,0,0,1-12.67-12.13"/><path class="cls-7" d="M262.35,415l9.35,7.23a17.83,17.83,0,0,0,3.82-2.31,35.12,35.12,0,0,0-12.17-5.86l-1,.94m-32,5.13a21.56,21.56,0,0,0,3.86,2.24l9.25-7.17c-.69-1.06-1.05-1.25-2.15-.85a41,41,0,0,0-9.85,4.8,13,13,0,0,0-1.11,1M247.47,417,245,415.89a37.85,37.85,0,0,0-9.41,7.2c2.37.93,4.39,1.91,6.61,2.15,1.76-2.78,3.45-5.44,5.27-8.29m13.9-3.15c-3.13-1.76-14.86-1.55-16.87.05,2.8,3.74,13.54,3.85,16.87-.05m8.88,9a35.08,35.08,0,0,0-9.42-7l-2.5,1.13,5.36,8.32a21.22,21.22,0,0,0,6.56-2.43m-7.87,2.74a43.25,43.25,0,0,0-5.5-8.19l-3.29.54a36.54,36.54,0,0,0,.17,8.81,32.51,32.51,0,0,0,8.62-1.16m-10,.91v-8.64l-3.44-.47a43.28,43.28,0,0,0-5.34,8c1.39,1,6.49,1.64,8.78,1.15m24.48,2.75a1.39,1.39,0,0,1-1.75-.62c-1.17-1.59-2.4-3.14-3.66-4.77l-7.1,2.56,1,2.72c-.81.43-1.15-.09-1.45-.71s-.53-1.05-.8-1.6L253.66,428c-.09.46-.16.88-.25,1.33l-.83-.05c-.13-.44-.25-.85-.39-1.31l-9.11-1.07c-1.27.56-.67,2.73-2.67,2.57.41-1,.78-1.91,1.21-2.95l-7.07-2.54c-1.22,1.58-2.4,3.1-3.57,4.63-.56.75-.55.75-1.66.87,1-2.27,2.71-4,4.16-6.07l-4.24-2.45a31.31,31.31,0,0,0-5.53,5.19c-.72.82-1.36,1.71-2.05,2.55-.43.53-.45.52-1.36.52,4.53-8.07,15.64-16.27,28.66-17.33,15.51-1.27,27.82,4.64,37.13,17.37h-1.36a36.69,36.69,0,0,0-8.07-8.4l-4.14,2.39,4.29,6"/></g><path class="cls-7" d="M391.91,425.24h7.83v22.32h-7.83Zm-8.69-6.62v64.55h8.68V454.23h7.87v28.93h8.65V418.62Z"/><polygon class="cls-7" points="358.58 418.83 358.58 482.95 375.1 482.95 375.1 474.69 366.87 474.69 366.87 453.99 375.1 453.99 375.1 447.78 366.86 447.78 366.86 427.09 375.1 427.09 375.1 418.83 358.58 418.83"/><polygon class="cls-7" points="416.34 418.62 416.34 483.17 433.26 483.17 433.26 474.48 425.02 474.48 425.02 427.29 433.26 427.29 433.26 418.62 416.34 418.62"/><text class="cls-9" transform="translate(151.34 163.63)">Кв<tspan class="cls-10" x="14.03" y="0">а</tspan><tspan x="20.61" y="0">лифицированные специ</tspan><tspan class="cls-10" x="162.34" y="0">а</tspan><tspan class="cls-11" x="168.91" y="0">ли</tspan><tspan class="cls-12" x="183.2" y="0">с</tspan><tspan class="cls-13" x="189.45" y="0">т</tspan><tspan x="194.89" y="0">ы </tspan><tspan x="0" y="16.16">помо</tspan><tspan class="cls-14" x="30.68" y="16.16">г</tspan><tspan class="cls-15" x="36.05" y="16.16">у</tspan><tspan x="42.69" y="16.16">т п</tspan><tspan class="cls-13" x="58.37" y="16.16">о</tspan><tspan class="cls-16" x="65.67" y="16.16">д</tspan><tspan x="72.75" y="16.16">обр</tspan><tspan class="cls-13" x="94.92" y="16.16">ат</tspan><tspan x="106.76" y="16.16">ь о</tspan><tspan class="cls-17" x="123.71" y="16.16">п</tspan><tspan class="cls-13" x="130.96" y="16.16">т</tspan><tspan x="136.4" y="16.16">им</tspan><tspan class="cls-10" x="152.47" y="16.16">а</tspan><tspan x="159.04" y="16.16">льные </tspan><tspan x="0" y="32.32">решен</tspan><tspan class="cls-18" x="38.45" y="32.32">и</tspan><tspan x="45.96" y="32.32">я.</tspan></text><text class="cls-9" transform="translate(151.34 305.04)"><tspan class="cls-19">У</tspan><tspan x="6.69" y="0">ни</tspan><tspan class="cls-20" x="21.51" y="0">к</tspan><tspan class="cls-10" x="28.09" y="0">а</tspan><tspan x="34.67" y="0">льные ло</tspan><tspan class="cls-13" x="88.33" y="0">г</tspan><tspan x="93.42" y="0">и</tspan><tspan class="cls-21" x="100.88" y="0">с</tspan><tspan class="cls-22" x="107.13" y="0">т</tspan><tspan class="cls-23" x="112.57" y="0">и</tspan><tspan x="119.89" y="0">ческие </tspan><tspan class="cls-24" x="163.12" y="0">ц</tspan><tspan x="170.47" y="0">еп</tspan><tspan class="cls-25" x="184.5" y="0">о</tspan><tspan x="191.76" y="0">чки</tspan><tspan x="0" y="16.16">пар</tspan><tspan class="cls-10" x="21.44" y="16.16">а</tspan><tspan x="28.01" y="16.16">л</tspan><tspan class="cls-26" x="34.84" y="16.16">е</tspan><tspan x="41.65" y="16.16">льно</tspan><tspan class="cls-27" x="69.94" y="16.16">г</tspan><tspan x="74.85" y="16.16">о импо</tspan><tspan class="cls-28" x="115.85" y="16.16">р</tspan><tspan class="cls-29" x="123.4" y="16.16">т</tspan><tspan x="128.75" y="16.16">а</tspan></text><text class="cls-30" transform="translate(151.21 103.32)">СОБСТВЕННЫЙ <tspan x="0" y="19.05">ИНЖЕНЕРНЫЙ </tspan><tspan x="0" y="38.1">ОТДЕЛ </tspan></text><text class="cls-9" transform="translate(871.6 160.6)"><tspan class="cls-31">О</tspan><tspan x="9.45" y="0">т в</tspan><tspan class="cls-32" x="24.58" y="0">е</tspan><tspan class="cls-17" x="31.37" y="0">д</tspan><tspan x="38.46" y="0">ущих брен</tspan><tspan class="cls-16" x="100.32" y="0">д</tspan><tspan x="107.4" y="0">ов </tspan><tspan class="cls-33" x="124.39" y="0">Т</tspan><tspan x="130.46" y="0">урции и </tspan><tspan class="cls-26" x="179.97" y="0">А</tspan><tspan x="188.27" y="0">зии</tspan></text><text class="cls-30" transform="translate(871.47 95.3)">ПОДБОР <tspan x="0" y="19.05">АНАЛОГОВ </tspan><tspan x="0" y="38.1">КОМПЛЕКТУЮЩИХ </tspan></text><text class="cls-30" transform="translate(503.71 257.38)">БЕЗ ПОТЕРЬ <tspan x="0" y="19.05">В К</tspan><tspan class="cls-34" x="34.01" y="19.05">А</tspan><tspan class="cls-35" x="48.66" y="19.05">ЧЕСТВЕ, </tspan><tspan x="0" y="38.1">С ВЫГОДОЙ ДО 30%</tspan></text><text class="cls-9" transform="translate(503.71 163.63)">По<tspan class="cls-24" x="16" y="0">пу</tspan><tspan class="cls-18" x="29.52" y="0">л</tspan><tspan x="36.4" y="0">ярные </tspan><tspan class="cls-36" x="76.66" y="0">т</tspan><tspan x="81.92" y="0">овары на с</tspan><tspan class="cls-37" x="144.75" y="0">к</tspan><tspan x="151.56" y="0">ла</tspan><tspan class="cls-24" x="164.88" y="0">д</tspan><tspan x="171.96" y="0">е.</tspan></text><text class="cls-30" transform="translate(503.2 103.32)">СОБСТВЕННЫЙ <tspan x="0" y="19.05">СКЛАД </tspan><tspan x="0" y="38.1">В САНКТ-ПЕТЕРБУРГЕ</tspan></text><text class="cls-30" transform="translate(872.45 257.38)"><tspan class="cls-38">Г</tspan><tspan x="9.62" y="0">А</tspan><tspan class="cls-39" x="25.23" y="0">Р</tspan><tspan x="37.1" y="0">АНТИЯ </tspan><tspan x="0" y="19.05">ОТ ПРОИЗВОДИТЕЛЯ </tspan><tspan x="0" y="38.1">ДО 3Х ЛЕТ</tspan></text><g class="cls-40"><path class="cls-41" d="M78.21,146.15h4.91v-1.92H78.21Zm1-4h3.18V138.6l-3.18.86Zm28.32,0h3.19a.79.79,0,0,0,0-.13c0-.55,0-1.1,0-1.65,0-1.11,0-1.11-1.08-1.4l-2.16-.57Zm-1.4,4H112v-1.91h-5.9Zm-17.36-15c0,1.28,0,2.47,0,3.67a.8.8,0,0,0,.39.76,10.51,10.51,0,0,0,5,1.8,11.49,11.49,0,0,0,7.37-1.58.68.68,0,0,0,.36-.66c0-1.18,0-2.36,0-3.55V131a13.76,13.76,0,0,1-13.11.1m-3.61,11.09v5.94l-.69.06v1.92h21v-2h-1.37v-6h1.4c0-1.38,0-2.71,0-4a.51.51,0,0,0-.3-.34c-.65-.2-1.3-.38-2-.53a.75.75,0,0,0-.52.11,13.52,13.52,0,0,1-14.59-.09.8.8,0,0,0-.53-.08c-.94.24-1.87.51-2.81.74a.41.41,0,0,0-.38.5c0,1,0,1.91,0,2.86v.86l.74.05m-2.42-33.6-.4,0c-.55,0-1.11,0-1.65,0a1.31,1.31,0,0,0,0,2.59,3.69,3.69,0,0,0,.58,0h27.9a3.44,3.44,0,0,0,.72-.06,1.21,1.21,0,0,0,1-1.09,1.3,1.3,0,0,0-1.38-1.5c-.58,0-1.16,0-1.78,0a13.44,13.44,0,0,0-1.8-6.67,11.83,11.83,0,0,0-5-4.67c.32,1.33.64,2.63,1,4l-1.91.46c0-.17-.09-.29-.12-.41-.63-2.49-1.25-5-1.88-7.48A1.81,1.81,0,0,0,96,92.35H94.32a1.78,1.78,0,0,0-1.83,1.43c-.4,1.58-.78,3.17-1.18,4.75-.26,1.07-.52,2.13-.79,3.22l-1.92-.48c.33-1.35.65-2.67,1-4a11.84,11.84,0,0,0-4.25,3.52,12.86,12.86,0,0,0-2.63,7.87m23.57,4.71H84c0,1,0,1.91,0,2.85,0,1.62,0,3.25.13,4.85a11.11,11.11,0,0,0,22.14-1.54c-.06-1.49,0-3,0-4.48v-1.68m2,0c0,2,0,4,0,6a12.82,12.82,0,0,1-4.23,10.12.68.68,0,0,0-.21.44c0,1.83,0,3.66,0,5.55l2.51.68c3.58,1,7.16,1.9,10.74,2.87a6.94,6.94,0,0,1,5.41,7.09c0,3.94,0,7.87,0,11.81v.86h-2V146.09a5,5,0,0,0-4-5.28l-3.74-1v2.38H114v6h-1.25v2.35h2.12v7.94h-2v-5.92h-2.17v-4.34h-3.26v3.93H82.41v-3.92H79.14v4.31H77v5.94H75v-7.93h2.1v-2.34l-.9,0v-5.95l.89,0V140A40.86,40.86,0,0,0,73,141.22a4.47,4.47,0,0,0-2.88,4.2c-.08,2.38,0,4.76,0,7.14,0,1.85,0,3.7,0,5.55,0,.17,0,.34,0,.54h-2v-.54c0-4.05,0-8.1,0-12.15a7.24,7.24,0,0,1,1.78-4.91.93.93,0,0,0,.21-.6c0-1.54,0-3.08,0-4.62a.75.75,0,0,1,.39-.74,9.12,9.12,0,0,0,4.41-8.59,9,9,0,0,0-3.42-6.62l-.12-.09-.13,0c0,.15,0,.29,0,.42,0,1,0,1.92,0,2.87a4.09,4.09,0,0,1-3.72,4.2,19.89,19.89,0,0,1-3.78,0,4.07,4.07,0,0,1-3.73-4.18c0-1.09,0-2.17,0-3.39-.25.2-.43.34-.6.49A9.32,9.32,0,0,0,60.55,135a.91.91,0,0,1,.49.88q0,10.14,0,20.28v.59H59v-.59q0-9.6,0-19.2a1,1,0,0,0-.42-.88,11.34,11.34,0,0,1,1.56-19c.55-.29,1.12-.56,1.76-.88V123a2.13,2.13,0,0,0,2.3,2.3h2.48a2.18,2.18,0,0,0,2.45-2.46v-6.53a16.11,16.11,0,0,1,3.33,1.88,11.34,11.34,0,0,1-.09,18,.79.79,0,0,0-.36.73c0,.81,0,1.61,0,2.42l14.68-3.95c0-1.83,0-3.65,0-5.46a.66.66,0,0,0-.24-.39,13.05,13.05,0,0,1-4.42-10.13c0-1.85,0-3.7-.06-5.54,0-.16,0-.32,0-.54H81a3.31,3.31,0,0,1-.32-6.62l.15,0c.17-.74.29-1.49.51-2.21a14.39,14.39,0,0,1,8.5-9.51.74.74,0,0,0,.5-.58c.07-.38.18-.75.28-1.13a3.79,3.79,0,0,1,3.7-2.86h1.85A3.78,3.78,0,0,1,99.71,93a7,7,0,0,1,.33,1.17,1,1,0,0,0,.71.85,14.47,14.47,0,0,1,8.74,11.39c0,.07,0,.15.05.26a3.44,3.44,0,0,1,2.64,1.33,3.3,3.3,0,0,1,.63,2.29,3.18,3.18,0,0,1-1.56,2.55,5.39,5.39,0,0,1-3,.48"/></g><rect class="cls-41" x="90.15" y="106.41" width="9.88" height="1.9"/><g class="cls-40"><path class="cls-41" d="M75.67,99s.09-.06.12-.12a5.28,5.28,0,0,0,.37-.55.34.34,0,0,0,0-.28c-.28-.46-.57-.93-.89-1.36A1,1,0,0,1,75,95.5c0-.11,0-.26.07-.37a.63.63,0,0,1,.2-.32c.41-.3.83-.58,1.25-.86.62-.43.62-.42.46-1.17a.28.28,0,0,0-.27-.26c-.54-.1-1.08-.23-1.62-.32a1,1,0,0,1-.86-.58c-.06-.15-.2-.26-.27-.4a.46.46,0,0,1-.07-.3c.08-.51.18-1,.27-1.52,0-.24.19-.53.11-.71s-.39-.3-.59-.46a.27.27,0,0,0-.36,0c-.47.32-1,.61-1.42.94a1,1,0,0,1-1,.19c-.14-.06-.3,0-.44-.09a.72.72,0,0,1-.32-.21c-.29-.39-.56-.81-.84-1.21-.14-.21-.25-.52-.45-.59s-.5.07-.76.1a.22.22,0,0,0-.22.22c-.11.57-.25,1.13-.34,1.69a.92.92,0,0,1-.56.82c-.15.07-.27.21-.42.29a.44.44,0,0,1-.3.06,9.71,9.71,0,0,1-1.52-.29.84.84,0,0,0-1.18.53.28.28,0,0,0,0,.34c.38.57.76,1.14,1.13,1.72a.46.46,0,0,1,.07.32,5.66,5.66,0,0,1-.16.82.56.56,0,0,1-.21.31,9.72,9.72,0,0,1-1.22.83.84.84,0,0,0-.49,1.21c.06.15.11.21.26.24.61.12,1.23.26,1.84.37a.66.66,0,0,1,.55.38c.1.19.26.36.37.55a.58.58,0,0,1,.07.34c-.08.5-.18,1-.27,1.5-.05.24-.18.53-.09.71s.39.3.59.45a.25.25,0,0,0,.36,0L68,99.7a.57.57,0,0,1,.56-.11c.22.07.47.08.69.15a.6.6,0,0,1,.3.19c.3.42.58.85.88,1.28.41.6.41.59,1.14.44a.28.28,0,0,0,.27-.27c.1-.52.23-1,.31-1.57a1.06,1.06,0,0,1,.63-.94,3.75,3.75,0,0,0,.36-.24.52.52,0,0,1,.32-.07c.72.12,1.43.26,2.2.41m-9.46,3.16c-.62-.41-1.25-.82-1.86-1.24a.28.28,0,0,1-.07-.24c.13-.74.28-1.48.42-2.22a.46.46,0,0,0-.4-.62c-.75-.16-1.5-.3-2.24-.47a.33.33,0,0,1-.2-.2c-.15-.66-.27-1.31-.41-2a.23.23,0,0,1,.13-.28l1.87-1.28a.46.46,0,0,0,.15-.71l-1.22-1.84a.32.32,0,0,1,0-.43c.36-.51.71-1,1-1.57a.31.31,0,0,1,.38-.15c.73.15,1.47.28,2.2.42a.45.45,0,0,0,.57-.37c.15-.75.31-1.5.46-2.24a.25.25,0,0,1,.23-.25c.66-.12,1.31-.25,2-.39a.21.21,0,0,1,.26.12l1.28,1.87a.47.47,0,0,0,.74.14L73.37,87a.27.27,0,0,1,.34,0c.52.36,1.05.72,1.58,1.06a.31.31,0,0,1,.17.39c-.15.73-.28,1.47-.42,2.2a.45.45,0,0,0,.38.57c.74.15,1.49.31,2.24.45a.28.28,0,0,1,.25.24c.12.65.25,1.3.39,1.94a.24.24,0,0,1-.13.29l-1.91,1.31a.43.43,0,0,0-.13.65L77.39,98a.26.26,0,0,1,0,.35c-.37.53-.73,1.07-1.07,1.62a.31.31,0,0,1-.36.14l-2.24-.43a.45.45,0,0,0-.55.39c-.15.75-.31,1.49-.45,2.24a.26.26,0,0,1-.24.24c-.65.13-1.3.25-1.94.39a.23.23,0,0,1-.29-.12L69,100.88a.44.44,0,0,0-.65-.12l-2.09,1.37"/><path class="cls-41" d="M72.1,94.52a2.23,2.23,0,1,0-2.25,2.22,2.24,2.24,0,0,0,2.25-2.22m1.05,0a3.28,3.28,0,1,1-3.28-3.29,3.27,3.27,0,0,1,3.28,3.29"/><path class="cls-41" d="M62,100.56c0-.16-.44-.44-.59-.37-.35.17-.71.33-1,.53a.9.9,0,0,1-1,.07c-.09-.05-.22,0-.31-.1a.59.59,0,0,1-.26-.2c-.24-.43-.47-.87-.68-1.31a.3.3,0,0,0-.38-.19c-.18,0-.35,0-.42.26-.13.48-.3.94-.46,1.4a2.07,2.07,0,0,1-1,.6l-.15,0c-.47-.15-.94-.28-1.4-.45-.26-.09-.29.14-.41.25s-.17.17-.08.32c.18.32.31.66.5,1a1,1,0,0,1,.09,1.08c0,.08,0,.19-.08.27a.75.75,0,0,1-.22.27c-.42.24-.85.47-1.29.67-.24.11-.2.27-.19.45a.32.32,0,0,0,.27.36c.33.09.65.23,1,.32a.92.92,0,0,1,.79.67c0,.1.11.18.14.27a.62.62,0,0,1,0,.33c-.14.49-.28,1-.45,1.45-.1.26.12.3.23.41s.18.18.34.09c.33-.19.69-.33,1-.53a.86.86,0,0,1,1-.07c.1,0,.22,0,.32.09a.61.61,0,0,1,.26.21c.24.44.48.88.69,1.33.11.25.3.15.47.16a.27.27,0,0,0,.31-.23c.09-.33.23-.64.31-1a1,1,0,0,1,.73-.87c.07,0,.14-.09.22-.11a.7.7,0,0,1,.35,0c.49.14,1,.28,1.45.45.26.1.29-.13.41-.23a.23.23,0,0,0,.08-.33c-.18-.33-.32-.68-.51-1a.94.94,0,0,1-.08-1c0-.09,0-.21.09-.29a.51.51,0,0,1,.19-.24c.43-.24.86-.48,1.31-.68.22-.1.2-.25.2-.43a.35.35,0,0,0-.28-.38c-.47-.14-.93-.31-1.4-.47a.37.37,0,0,1-.18-.11c-.14-.25-.27-.51-.39-.77a.3.3,0,0,1,0-.21c.11-.39.23-.77.35-1.14l.15-.47m-8.21-1,.62.19,1.19.37c.27.09.35,0,.44-.21.17-.54.36-1.08.53-1.62a.27.27,0,0,1,.28-.23c.54,0,1.08-.1,1.62-.12a.29.29,0,0,1,.24.15c.28.5.54,1,.8,1.53.14.25.21.28.47.15.51-.26,1-.51,1.54-.78a.25.25,0,0,1,.33,0c.39.35.8.68,1.2,1a.25.25,0,0,1,.1.34c-.18.54-.34,1.08-.51,1.63-.09.28,0,.36.23.45.54.18,1.09.37,1.64.54a.26.26,0,0,1,.2.27c0,.51.07,1,.12,1.54a.28.28,0,0,1-.18.34l-1.51.78c-.25.13-.27.22-.15.47.26.52.53,1,.78,1.57a.31.31,0,0,1,0,.28c-.34.42-.7.83-1,1.24a.23.23,0,0,1-.3.09L60.75,109c-.28-.09-.36-.05-.45.23l-.54,1.64a.24.24,0,0,1-.25.2c-.54,0-1.08.09-1.62.12a.35.35,0,0,1-.25-.14c-.28-.51-.54-1-.81-1.55-.14-.25-.22-.28-.47-.15-.5.25-1,.49-1.49.75a.31.31,0,0,1-.42,0c-.37-.33-.75-.65-1.13-1a.32.32,0,0,1-.13-.41c.18-.52.34-1,.5-1.57.1-.31.07-.38-.25-.48-.53-.18-1.06-.36-1.59-.52a.28.28,0,0,1-.22-.29c0-.52-.07-1-.12-1.55a.26.26,0,0,1,.16-.31l1.47-.76c.33-.18.34-.23.18-.55-.24-.49-.48-1-.74-1.48a.26.26,0,0,1,0-.35l1-1.2a1.77,1.77,0,0,1,.16-.14"/><path class="cls-41" d="M59.79,104.56a1.62,1.62,0,1,0-1.61,1.62,1.61,1.61,0,0,0,1.61-1.62m-1.64,2.67a2.67,2.67,0,1,1,2.69-2.63,2.7,2.7,0,0,1-2.69,2.63"/></g><g class="cls-42"><path class="cls-43" d="M798.54,149.91a1,1,0,0,0,.15-1.34,1,1,0,0,0-1.35-.19,1,1,0,0,0-.16,1.42,1,1,0,0,0,1.36.11m2.37-32.38,18.62-18c.71-.69,1-.68,1.72,0l14.67,15.19c.75.78.74,1-.06,1.82l-31.75,30.67q-2.67,2.57-5.32,5.15c-.79.76-1.07.75-1.83,0-1.6-1.66-3.21-3.31-4.79-5a1.26,1.26,0,0,1-.27-.9c.38-2.62-1.24-4.28-3.9-4a1.14,1.14,0,0,1-.82-.29c-1.66-1.67-3.29-3.37-4.92-5.07-.66-.68-.66-1,0-1.67L795,123.25l5.92-5.72h0"/><path class="cls-41" d="M804.21,150c.47.48.86.9,1.34,1.38l-1.41,1.36,2.71,2.81-1.42,1.37-2.7-2.79c-.48.47-.92.9-1.39,1.34L800,154.08l4.22-4.08"/><path class="cls-41" d="M783.65,128.71l1.32,1.36-4.22,4.08-1.31-1.35,1.38-1.33-2.73-2.82,1.44-1.39,2.72,2.81,1.4-1.36"/><path class="cls-41" d="M839.4,124.1c-.91-.95-1.77-1.84-2.69-2.78l-1.48,1.43-1.35-1.39,4.3-4.16,1.34,1.39-1.38,1.33,2.7,2.79-1.44,1.39"/><path class="cls-41" d="M811.21,146c-.47.46-.9.88-1.39,1.34l2.69,2.78-1.41,1.37-2.67-2.77L807,150l-1.36-1.41,4.18-4,1.35,1.39"/><path class="cls-41" d="M787.89,124.61l1.41-1.36,1.34,1.39-4.19,4-1.33-1.37,1.35-1.31-2.7-2.8,1.43-1.38,2.69,2.79"/><path class="cls-41" d="M814.08,143.2l-1.37,1.32-1.35-1.39,4.17-4c.43.45.86.88,1.33,1.38l-1.39,1.33,2.7,2.8L816.76,146l-2.68-2.78"/><path class="cls-41" d="M792.16,120.49l-2.71-2.8,1.4-1.35,2.69,2.78,1.4-1.35,1.35,1.4-4.18,4-1.33-1.39,1.38-1.33"/><path class="cls-41" d="M813.36,100l1.43-1.38-2.68-2.78,1.43-1.37,2.68,2.78,1.37-1.32L819,97.33l-.91.88c-1,.93-1.94,1.85-2.88,2.8-.32.31-.55.33-.84,0s-.6-.63-1-1"/><path class="cls-41" d="M833.76,129.56c-.9-.93-1.77-1.84-2.68-2.77l-1.38,1.33-1.34-1.4,4.16-4,1.33,1.37-1.37,1.32,2.7,2.8-1.42,1.37"/><path class="cls-41" d="M813.28,102.76l-4.17,4-1.34-1.38,1.37-1.33-2.7-2.8,1.42-1.36c.87.91,1.75,1.81,2.68,2.77l1.39-1.34,1.35,1.4"/><path class="cls-41" d="M823.86,139.13l-1.41,1.36-2.68-2.78-1.4,1.35L817,137.65l4.17-4,1.32,1.38-1.36,1.32,2.71,2.81"/><path class="cls-41" d="M797.76,117.75l-1.32-1.37,1.37-1.33-2.71-2.8,1.42-1.37,2.67,2.77,1.4-1.35,1.36,1.41-4.19,4"/><path class="cls-41" d="M826.85,128.14l1.33,1.38-1.37,1.32,2.7,2.8L828.1,135l-2.67-2.77-1.4,1.35-1.36-1.41,4.18-4"/><path class="cls-41" d="M800.75,106.77l1.43-1.38,2.69,2.79,1.38-1.33,1.34,1.39-4.16,4-1.32-1.37,1.35-1.31-2.71-2.81"/><path class="cls-41" d="M820.41,76.92l1,1c1.34,1.38,2.68,2.76,4,4.17a4.54,4.54,0,0,0,1.07,4,4.63,4.63,0,0,0,4,1.22h0l0,0c1.22,1.24,2.48,2.54,3.73,3.84l1,1.08.14.15-.14.14-5.33,5.14L798.1,128.31l-.16.15-.13-.13L783,113l19.47-18.81h0l15.88-15.35,2-2"/><path class="cls-41" d="M835.5,93.71l.44-.42c.79-.76.79-1,0-1.82-1.61-1.66-3.2-3.33-4.83-5a1.23,1.23,0,0,0-.88-.3c-2.64.29-4.23-1.39-3.85-4a1.16,1.16,0,0,0-.26-.84c-1.61-1.71-3.25-3.4-4.89-5.09-.65-.68-1-.69-1.67,0l-1.75,1.69L806.9,88.47l-2.27,2.19L801,94.19h0l-8.56,8.26-10,9.71c-.72.69-.72,1,0,1.72L797,129.08c.75.78,1,.78,1.82,0l31.76-30.66,4.89-4.72m-1.7-1.37-2.32,2.24-2.38,2.29-17,16.4L798,126.93l-13.39-13.87,9.35-9,4.28-4.13,4.28-4.14L804,94.3l.32-.31,1.83-1.77L808.4,90l4-3.82,7-6.75,1-1,.2.21c1.19,1.24,2.42,2.5,3.62,3.77a5.3,5.3,0,0,0,5.75,6c1.16,1.17,2.31,2.37,3.44,3.53Z"/><path class="cls-41" d="M833.32,98.63l1.33,1.38,1.41-1.36,2.71,2.8,1.42-1.37-2.69-2.79L838.88,96l-1.34-1.4-4.22,4.08"/><path class="cls-41" d="M812.76,77.33l1.31,1.37,4.22-4.08L817,73.27l-1.38,1.33-2.72-2.82-1.44,1.39L814.16,76l-1.4,1.35"/><path class="cls-41" d="M806.2,132.89c-.91-.95-1.77-1.84-2.69-2.78l1.49-1.44-1.35-1.4-4.3,4.16,1.34,1.39c.45-.44.89-.87,1.38-1.33l2.69,2.79,1.44-1.39"/><path class="cls-41" d="M829,105.48l1.38-1.34,2.69,2.78,1.41-1.36-2.67-2.77,1.38-1.33L831.86,100l-4.18,4,1.35,1.39"/><path class="cls-41" d="M808.51,81.43l-1.41,1.36,1.34,1.38c1.4-1.35,2.78-2.67,4.19-4l-1.33-1.37L810,80.06l-2.71-2.8-1.43,1.38,2.7,2.79"/><path class="cls-41" d="M826.18,108.25c.47-.46.9-.87,1.36-1.33l-1.34-1.39c-1.38,1.32-2.76,2.66-4.18,4l1.33,1.37,1.39-1.33,2.7,2.79,1.42-1.37-2.68-2.77"/><path class="cls-41" d="M804.24,85.55l-2.7-2.8-1.4,1.35,2.68,2.78-1.39,1.35,1.35,1.41,4.18-4-1.34-1.38-1.38,1.33"/><path class="cls-41" d="M783,106l-1.44,1.38-2.68-2.78L777.46,106l2.68,2.78-1.36,1.32,1.38,1.43.92-.88c1-.93,1.91-1.87,2.89-2.79.33-.3.35-.53,0-.83s-.61-.62-1-1"/><path class="cls-41" d="M811.85,127.44l-2.68-2.77,1.38-1.33-1.34-1.4L805,126l1.32,1.37,1.37-1.33,2.71,2.8,1.41-1.37"/><path class="cls-41" d="M785.79,106l4.18-4-1.34-1.38L787.26,102l-2.7-2.8-1.42,1.37,2.69,2.78-1.39,1.34,1.35,1.4"/><path class="cls-41" d="M821.76,117.89l1.41-1.37-2.68-2.78,1.39-1.34L820.53,111l-4.17,4,1.32,1.37,1.37-1.31,2.71,2.81"/><path class="cls-41" d="M801.31,91.06,800,89.68,798.61,91l-2.71-2.8-1.41,1.36,2.67,2.77c-.49.47-.92.9-1.4,1.35l1.36,1.41,4.19-4"/><path class="cls-41" d="M810.68,120.49l1.33,1.37,1.37-1.32,2.7,2.8L817.5,122l-2.68-2.77,1.4-1.35-1.36-1.41-4.18,4"/><path class="cls-41" d="M790.23,93.65,788.8,95l2.69,2.78c-.48.47-.91.88-1.37,1.34l1.34,1.39,4.16-4-1.32-1.36L793,96.47l-2.72-2.82"/><path class="cls-41" d="M829.4,92.14a.16.16,0,0,1,.23,0,.15.15,0,0,1,0,.22.16.16,0,0,1-.22,0,.17.17,0,0,1,0-.23"/><path class="cls-41" d="M830.38,93.15a1.24,1.24,0,1,0-1.76,0,1.25,1.25,0,0,0,1.76,0"/></g><g class="cls-44"><path class="cls-41" d="M442.86,284.81h-.06v.41c.05,2.87.09,5.73.13,8.6A1,1,0,0,0,444.1,295c.68,0,1.37.05,2,0,1.56-.06,1.77-.28,1.78-1.86,0-4.45,0-8.9,0-13.35,0-1.28-.09-2.56-.13-3.84a.88.88,0,0,0-.9-1c-.84,0-1.69-.1-2.53-.09-1.36,0-1.52.16-1.53,1.51,0,2.81,0,5.62,0,8.43m6.64-.57c0,2.48,0,5,0,7.46,0,.72.22,1.11,1,1.26s1.59.39,2.38.6A46.64,46.64,0,0,0,468,294.85a2,2,0,0,0,2-1.21c.38-.89.12-1.44-.83-1.62-.56-.11-1.15-.1-1.69-.26-.31-.09-.54-.42-.81-.64.27-.21.51-.56.8-.62a15.46,15.46,0,0,1,2-.15,2.33,2.33,0,0,0,2.58-2.21c.28-1.27,0-1.73-1.32-1.87-.78-.09-1.58-.09-2.36-.23-.24,0-.42-.4-.63-.61.2-.19.38-.49.61-.53a21.36,21.36,0,0,1,2.52-.29c1.76-.09,2.54-.93,2.48-2.72a1,1,0,0,0-.94-1.13c-.87-.12-1.75-.18-2.6-.36-.31-.06-.74-.36-.79-.61-.12-.54.38-.64.81-.67.9-.08,1.8-.12,2.69-.19A1.48,1.48,0,0,0,474,277.6a1.68,1.68,0,0,0-.85-2,4.26,4.26,0,0,0-1.56-.42c-3.39-.19-6.77-.33-10.16-.51-.87,0-.86-.16-.72-1a40.48,40.48,0,0,0,.65-5.25,5.37,5.37,0,0,0-2.12-4.35c-.83-.68-1.66-.36-1.88.69a4.62,4.62,0,0,0-.09.65,11.07,11.07,0,0,1-6.86,10,1.42,1.42,0,0,0-.94,1.52c0,2.43,0,4.87,0,7.3m-5.34,13.31c-.52-.14-1.05-.27-1.57-.42a2.74,2.74,0,0,1-2.32-3c0-2.15,0-4.31,0-6.47,0-3.83,0-7.65,0-11.48,0-2.56.94-3.59,3.5-3.79a13.18,13.18,0,0,1,4.87.41,2.38,2.38,0,0,0,1.61-.19c2.8-1.46,4-3.95,4.38-7,.06-.46.12-.92.21-1.37a3.64,3.64,0,0,1,6.11-2.13,7.73,7.73,0,0,1,2.92,5.66c.05,1.18.15,2.35.19,3.52,0,.74.36,1,1.12,1.07,2.29.09,4.59.2,6.88.39,3.87.31,4.94,3,4.11,6.52a5.31,5.31,0,0,0-.16,1.9,6.94,6.94,0,0,1-.46,3.28c-.34,1-.51,2.1-.8,3.14s-.66,2.17-1,3.24a28.38,28.38,0,0,0-1,2.89,4.16,4.16,0,0,1-3.82,3.48c-5.88.31-11.76.38-17.49-1.3a1.54,1.54,0,0,0-1.86.59,2.45,2.45,0,0,1-1.25.67c-.65.19-1.34.26-2,.39Z"/><path class="cls-41" d="M410.86,263.11c.21-1.37.36-2.76.65-4.11a24.18,24.18,0,0,1,20.14-18.75,24.57,24.57,0,0,1,26.07,13.44,44,44,0,0,1,1.67,4.27c.28.71,0,.9-.71.88-2.66-.09-2.08.49-3.12-2.12a21.24,21.24,0,0,0-24.66-13.23,20.49,20.49,0,0,0-15.17,12.71c-5.53,13.46,2.73,25.72,14,29.06a23.09,23.09,0,0,0,6.83.67c1.23,0,1.31.07,1.3,1.3,0,2.1.29,1.79-1.75,1.84a24.29,24.29,0,0,1-23.84-16.39,43.36,43.36,0,0,1-1.21-5.83c-.08-.37-.12-.75-.18-1.12Z"/><path class="cls-41" d="M437.48,253.9v-.25c-1.92,0-3.83,0-5.74,0-.62,0-.89.2-.89.85,0,3.17,0,6.34,0,9.51,0,.75.3.93,1,.9,2-.08,3.94-.08,5.91-.16,1.74-.07,3.49-.13,5.23-.31a2.44,2.44,0,0,0,2.48-2.46,17.66,17.66,0,0,0-.11-6.11c-.31-1.54-.65-1.91-2.22-2-1.88,0-3.77,0-5.65,0M435.22,249c3.14.1,6.29.08,9.42.36a6.44,6.44,0,0,1,6,6.73c0,2,0,4,0,6-.05,4.1-2.27,6.59-6.35,7.07a38.35,38.35,0,0,1-4,.24c-2.6,0-5.19,0-7.79,0-1.66,0-1.66,0-1.66,1.67,0,.82.28,1.08,1.1,1.05s1.85,0,2.78-.09c.58,0,.86.17.84.79,0,1,0,2,0,3,0,.62-.25.83-.83.81-.85,0-1.7,0-2.54,0-1.3,0-1.31,0-1.3,1.32,0,.9,0,1.81,0,2.71,0,.62-.17.9-.83.88-1.17,0-2.35,0-3.53,0-.55,0-.79-.19-.77-.76,0-1.1,0-2.19,0-3.28,0-.63-.24-.9-.87-.88-.93,0-1.86,0-2.79,0-.56,0-.79-.19-.77-.77q0-1.51,0-3c0-.6.19-.84.8-.82.93,0,1.86,0,2.79,0,.59,0,.87-.21.84-.81,0-.25,0-.49,0-.74,0-.91-.24-1.18-1.15-1.16s-1.75,0-2.62.06c-.49,0-.69-.18-.68-.67,0-1.07,0-2.13,0-3.2,0-.53.2-.74.73-.73.84,0,1.69,0,2.54,0,1.06,0,1.16-.09,1.15-1.18q0-6.63,0-13.28c0-1.28,0-1.29,1.27-1.29h8.2V249"/></g><polygon class="cls-41" points="440.62 114.04 440.62 110.39 442.67 110.48 442.67 113.91 440.62 114.04"/><polygon class="cls-41" points="444.89 113.95 444.89 110.43 446.87 110.52 446.87 113.83 444.89 113.95"/><path class="cls-41" d="M463.49,109.25l7.68.33.06,12-7.74,1.25Zm-11.89-.7,9.57.41v14.21l-9.57,1.65ZM438,107.84l11.25.48v17.25L438,127.82Zm-30.83,16V98.62l26.06-5v34.83l-.75-.12-16-2.7V113.54h-5.95v10.61Zm28.12-32.44-30.71,5.73V126l30.71,5.09,38.17-6.93V98.41Z"/><polygon class="cls-41" points="410.07 108.82 410.07 102.52 413.91 102.14 413.91 108.82 410.07 108.82"/><polygon class="cls-41" points="417.2 108.57 417.2 101.74 421.37 101.33 421.37 108.57 417.2 108.57"/><polygon class="cls-41" points="424.67 108.57 424.67 100.94 429.08 100.51 429.08 108.57 424.67 108.57"/><polygon class="cls-41" points="453.8 113.77 453.8 110.42 455.69 110.5 455.69 113.65 453.8 113.77"/><polygon class="cls-41" points="457.73 113.69 457.73 110.46 459.55 110.54 459.55 113.58 457.73 113.69"/><polygon class="cls-41" points="464.9 113.51 464.9 110.69 466.49 110.76 466.49 113.41 464.9 113.51"/><polygon class="cls-41" points="468.2 113.45 468.2 110.72 469.74 110.79 469.74 113.35 468.2 113.45"/><text class="cls-30" transform="translate(152.26 260.85)">ДОС<tspan class="cls-45" x="44.28" y="0">Т</tspan><tspan x="55.79" y="0">АВКА </tspan><tspan x="0" y="19.05">ТОЧНО В СРОК</tspan></text><g class="cls-46"><path class="cls-41" d="M122.12,290.87a3.2,3.2,0,0,0-3.35-3.21,3.21,3.21,0,0,0,.28,6.41,3.18,3.18,0,0,0,3.07-3.2m-43.64-3.2a3.2,3.2,0,1,0,3.21,3.2,3.2,3.2,0,0,0-3.21-3.2m32.27-21.81V289h1.69a6.73,6.73,0,0,1,6.42-4.89,6.35,6.35,0,0,1,3.64,1,6.93,6.93,0,0,1,2.9,3.84c1.27.14,1.75-.29,1.75-1.55,0-3.24,0-6.49,0-9.74a1.77,1.77,0,0,0-.09-.65q-1.62-4.51-3.26-9a3.19,3.19,0,0,0-3.15-2.16h-9.9ZM72.6,243.48a14.37,14.37,0,1,0,14.37,15,14.44,14.44,0,0,0-14.37-15m17.88,13.17a17.57,17.57,0,0,1-6.65,15.11c-4.77,3.87-10.22,4.83-16.15,3.31a2,2,0,0,0,0,.22v12.46A1.19,1.19,0,0,0,68.92,289c.87,0,1.73,0,2.59,0a.56.56,0,0,0,.65-.45,6.7,6.7,0,0,1,12.64,0,.53.53,0,0,0,.58.42h21.79v-.52q0-15.15,0-30.31c0-1.13-.41-1.54-1.53-1.54H90.48ZM71.94,292.53c-.91,0-1.79,0-2.67,0a4.75,4.75,0,0,1-5.12-5.07c0-2.41,0-4.82,0-7.24,0-2.07,0-4.15,0-6.23a.57.57,0,0,0-.33-.58,17.31,17.31,0,0,1-9-13.54,17.85,17.85,0,0,1,33.88-9.68c.44.94.78,1.93,1.18,2.94h15.83a4.77,4.77,0,0,1,5,4.95c0,1.25,0,2.51,0,3.76v.5h9.73a6.64,6.64,0,0,1,6.69,4.61c1.17,3.14,2.3,6.3,3.43,9.46a1.79,1.79,0,0,1,.12.61c0,3.38,0,6.77,0,10.16a6.24,6.24,0,0,1-.38,2.42,4.56,4.56,0,0,1-4.43,2.9.54.54,0,0,0-.57.44,6.58,6.58,0,0,1-6.42,4.62,6.69,6.69,0,0,1-6.3-4.57.59.59,0,0,0-.67-.48q-13.23,0-26.46,0a.52.52,0,0,0-.6.44,6.6,6.6,0,0,1-6.35,4.61,6.76,6.76,0,0,1-6.4-4.57l-.15-.47"/><path class="cls-41" d="M90,275.22h11.12a1.78,1.78,0,0,1,1.82,1.31,1.75,1.75,0,0,1-1.75,2.2H78.87A1.78,1.78,0,0,1,77,277.46a1.76,1.76,0,0,1,1.74-2.24H90"/><path class="cls-41" d="M97.34,267.51h3.8a1.75,1.75,0,1,1,0,3.5H93.52a1.75,1.75,0,1,1,0-3.5h3.81"/><path class="cls-41" d="M69.81,260.7a5.43,5.43,0,0,1,.34-.47c2.89-2.89,5.77-5.79,8.67-8.66a2.51,2.51,0,0,1,1-.6,1.65,1.65,0,0,1,1.89.72,1.76,1.76,0,0,1-.09,2,3.92,3.92,0,0,1-.34.37l-10,10a1.81,1.81,0,0,1-2.93,0l-4.52-4.52a1.75,1.75,0,0,1,.63-2.95,1.73,1.73,0,0,1,1.84.46l3.16,3.16c.11.11.19.24.37.46"/><path class="cls-41" d="M120.45,275.2l-1-2.85c-.15-.43-.2-1-.51-1.24s-.9-.08-1.37-.08h-1.47v4.17Zm-1.85,3.53h-4.18a1.75,1.75,0,0,1-1.88-1.87c0-2.49,0-5,0-7.48a1.74,1.74,0,0,1,1.89-1.87h4.51a3.39,3.39,0,0,1,3.34,2.36q1.17,3.25,2.31,6.53a1.74,1.74,0,0,1-1.64,2.33c-1.45,0-2.9,0-4.35,0Z"/></g><g class="cls-47"><path class="cls-41" d="M796.39,278.86l-9.59,14.9.15,0,7.13-1.41a1.44,1.44,0,0,1,1.82,1.1c.58,2,1.15,4.07,1.73,6.1,0,.18.11.36.18.59l7.48-12.49a1.84,1.84,0,0,1-1-.86c-.64-1-1.3-2-1.94-3a.75.75,0,0,0-.56-.37l-3.55-.68a1.51,1.51,0,0,1-1.43-1.46c-.14-.78-.29-1.55-.46-2.42m36.13,0c-.19,1-.36,1.79-.52,2.63a1.46,1.46,0,0,1-1.26,1.25l-3.76.72a.66.66,0,0,0-.46.32c-.63,1-1.27,1.95-1.91,2.93a1.84,1.84,0,0,1-1,.93l7.51,12.51c0-.19.09-.29.12-.4q.88-3.15,1.79-6.3a1.43,1.43,0,0,1,1.69-1.13l4,.79,3.46.69c-3.21-5-6.39-9.92-9.61-14.94m-39.18-13.67,2.14,3.1a1.52,1.52,0,0,1,.26,1.24c-.25,1.12-.47,2.24-.73,3.36a.44.44,0,0,0,.22.55c1,.61,1.93,1.25,2.89,1.88a1.51,1.51,0,0,1,.7,1.05c.21,1.14.44,2.28.63,3.42a.41.41,0,0,0,.41.39c1.11.19,2.22.41,3.33.61a1.68,1.68,0,0,1,1.17.78c.61,1,1.25,1.91,1.86,2.87a.38.38,0,0,0,.46.19l3.33-.72a1.62,1.62,0,0,1,1.38.27c.94.66,1.9,1.29,2.84,1.95a.33.33,0,0,0,.46,0l2.89-2a1.55,1.55,0,0,1,1.27-.24l3.39.73a.32.32,0,0,0,.41-.17c.62-1,1.26-1.9,1.87-2.86a1.73,1.73,0,0,1,1.21-.82l3.33-.6a.41.41,0,0,0,.38-.39c.2-1.14.43-2.27.63-3.41a1.58,1.58,0,0,1,.75-1.09c1-.62,1.91-1.27,2.88-1.88a.36.36,0,0,0,.19-.46c-.25-1.11-.47-2.23-.72-3.34a1.63,1.63,0,0,1,.27-1.37c.64-.9,1.25-1.82,1.89-2.71a.49.49,0,0,0,0-.67c-.67-.92-1.3-1.87-2-2.81a1.51,1.51,0,0,1-.23-1.24c.25-1.14.48-2.29.73-3.43a.31.31,0,0,0-.16-.41c-1-.63-2-1.29-3-1.93a1.49,1.49,0,0,1-.69-1c-.21-1.14-.43-2.28-.64-3.42a.42.42,0,0,0-.41-.42c-1.11-.18-2.22-.42-3.33-.61a1.64,1.64,0,0,1-1.15-.76c-.63-1-1.28-1.95-1.91-2.93a.28.28,0,0,0-.36-.15c-1.11.25-2.23.47-3.34.72a1.67,1.67,0,0,1-1.43-.28c-.94-.66-1.89-1.29-2.84-2a.3.3,0,0,0-.43,0c-1,.68-2,1.34-2.92,2a1.44,1.44,0,0,1-1.21.25c-1.16-.25-2.32-.48-3.48-.74a.29.29,0,0,0-.38.15c-.65,1-1.31,2-2,3a1.5,1.5,0,0,1-1,.68l-3.51.65a.31.31,0,0,0-.29.3c-.21,1.14-.44,2.27-.64,3.41a1.68,1.68,0,0,1-.79,1.19c-1,.62-1.92,1.26-2.89,1.88a.29.29,0,0,0-.15.38c.24,1.1.46,2.21.71,3.31a1.77,1.77,0,0,1-.3,1.51c-.7,1-1.37,2-2.07,3m-11,30.39c.18-.34.35-.68.56-1q5.75-8.94,11.5-17.89l.15-.25-1.29-.85c-.24-.16-.49-.31-.72-.48a1.38,1.38,0,0,1-.59-1.48l.78-3.81a.69.69,0,0,0-.12-.62c-.71-1-1.4-2.05-2.09-3.07a1.43,1.43,0,0,1,0-1.84l2.14-3.18a.75.75,0,0,0,.09-.46c-.25-1.29-.52-2.58-.78-3.87a1.4,1.4,0,0,1,.65-1.56c1.08-.72,2.17-1.43,3.26-2.13a.6.6,0,0,0,.28-.42q.36-1.92.75-3.84a1.38,1.38,0,0,1,1.18-1.18l3.87-.76a.66.66,0,0,0,.36-.25c.71-1.06,1.41-2.14,2.11-3.21a1.44,1.44,0,0,1,1.67-.71l3.69.76a.78.78,0,0,0,.66-.12c1-.71,2.06-1.4,3.1-2.1a1.42,1.42,0,0,1,1.81,0c1,.71,2.09,1.41,3.12,2.12a.71.71,0,0,0,.61.12l3.75-.77a1.39,1.39,0,0,1,1.58.65c.72,1.09,1.42,2.18,2.14,3.26a.7.7,0,0,0,.39.26l3.87.76a1.39,1.39,0,0,1,1.17,1.19c.25,1.26.49,2.53.73,3.79a.7.7,0,0,0,.33.49c1.06.68,2.1,1.37,3.16,2.06a1.45,1.45,0,0,1,.7,1.67c-.26,1.27-.52,2.54-.77,3.81a.62.62,0,0,0,.09.44c.71,1.07,1.43,2.13,2.15,3.2a1.43,1.43,0,0,1,0,1.79l-2.14,3.15a.57.57,0,0,0-.11.52c.27,1.26.52,2.52.78,3.78a1.45,1.45,0,0,1-.7,1.65l-1.79,1.17-.07.07.22.36,11.66,18.15a1.51,1.51,0,0,1,.27,1.28,1.39,1.39,0,0,1-1.6,1.05c-2.48-.48-4.95-1-7.43-1.47l-2-.41c0,.11-.07.21-.1.31L833,304a1.45,1.45,0,0,1-1.89,1.09,1.68,1.68,0,0,1-.84-.76l-8.49-14.16c-.58-1-1.15-1.92-1.74-2.87a.76.76,0,0,0-.38-.27,1.57,1.57,0,0,0-1.68.31c-.85.64-1.76,1.21-2.65,1.8a1.36,1.36,0,0,1-1.76,0c-1.06-.72-2.12-1.45-3.2-2.15a.88.88,0,0,0-.49-.1,1.53,1.53,0,0,0-1.37,1c-3.27,5.51-6.58,11-9.87,16.49a1.45,1.45,0,0,1-1.78.75,1.52,1.52,0,0,1-1-1.12q-1.17-4.14-2.36-8.28l-.1-.29-2.31.45c-2.32.47-4.64.94-7,1.39-.87.18-1.35-.11-1.82-1.06Z"/><path class="cls-41" d="M814.46,250.9a14.27,14.27,0,1,0,14.27,14.28,14.25,14.25,0,0,0-14.27-14.28m0-2.85a17.13,17.13,0,1,1-17.12,17.1,17.15,17.15,0,0,1,17.12-17.1"/><path class="cls-41" d="M822.93,257l3.12,2.92-13.6,14.5-9.58-8.51,2.85-3.2,6.46,5.75L822.93,257"/></g><text class="cls-48" transform="translate(506 446.13)"><tspan class="cls-49">П</tspan><tspan class="cls-50" x="10.73" y="0">о</tspan><tspan class="cls-49" x="18.49" y="0">лучит</tspan><tspan x="54.1" y="0">ь </tspan><tspan class="cls-51" x="63.51" y="0">к</tspan><tspan class="cls-52" x="70.24" y="0">омплек</tspan><tspan class="cls-53" x="116.88" y="0">т</tspan><tspan class="cls-49" x="123.3" y="0">ующие</tspan><tspan class="cls-54" x="166.72" y="0">,</tspan><tspan x="169.22" y="0"> </tspan><tspan class="cls-49" x="172.37" y="0">дл</tspan><tspan x="187.55" y="0">я </tspan><tspan class="cls-49" x="197.45" y="0">ваше</tspan><tspan class="cls-55" x="228.47" y="0">г</tspan><tspan x="233.42" y="0">о </tspan><tspan class="cls-49" x="244.48" y="0">ин</tspan><tspan class="cls-51" x="260.35" y="0">ж</tspan><tspan class="cls-49" x="269.62" y="0">енерно</tspan><tspan class="cls-56" x="315.98" y="0">г</tspan><tspan class="cls-57" x="320.93" y="0">о </tspan><tspan class="cls-58" x="331.99" y="0">проект</tspan><tspan x="376.36" y="0">а </tspan><tspan class="cls-56" x="385.95" y="0">т</tspan><tspan class="cls-52" x="391.99" y="0">очн</tspan><tspan x="414.71" y="0">о в </tspan><tspan class="cls-49" x="435.83" y="0">сро</tspan><tspan class="cls-59" x="458.64" y="0">к</tspan><tspan class="cls-54" x="466.04" y="0">,</tspan><tspan x="468.53" y="0" xml:space="preserve"> с </tspan><tspan class="cls-49" x="481.67" y="0">гарантие</tspan><tspan class="cls-60" x="537.27" y="0">й </tspan><tspan class="cls-52" x="548.33" y="0">кач</tspan><tspan class="cls-61" x="568.78" y="0">ес</tspan><tspan class="cls-49" x="582.91" y="0">тв</tspan><tspan x="596.17" y="0">а </tspan><tspan class="cls-49" x="0" y="16.8">произв</tspan><tspan class="cls-50" x="45.25" y="16.8">о</tspan><tspan class="cls-49" x="53.01" y="16.8">ди</tspan><tspan class="cls-62" x="68.65" y="16.8">т</tspan><tspan class="cls-63" x="74.7" y="16.8">е</tspan><tspan class="cls-49" x="81.82" y="16.8">л</tspan><tspan x="89.36" y="16.8">я </tspan><tspan class="cls-50" x="99.26" y="16.8">о</tspan><tspan x="107.01" y="16.8">т </tspan><tspan class="cls-49" x="116.32" y="16.8">э</tspan><tspan class="cls-51" x="123.26" y="16.8">к</tspan><tspan class="cls-58" x="129.99" y="16.8">с</tspan><tspan class="cls-64" x="136.92" y="16.8">к</tspan><tspan class="cls-49" x="143.94" y="16.8">люзивно</tspan><tspan class="cls-62" x="199.67" y="16.8">г</tspan><tspan x="204.62" y="16.8">о </tspan><tspan class="cls-49" x="215.68" y="16.8">ди</tspan><tspan class="cls-65" x="231.32" y="16.8">с</tspan><tspan class="cls-49" x="238.17" y="16.8">трибь</tspan><tspan class="cls-50" x="274.48" y="16.8">ю</tspan><tspan class="cls-62" x="284.96" y="16.8">т</tspan><tspan class="cls-49" x="291" y="16.8">ора</tspan><tspan class="cls-66" x="313.42" y="16.8">.</tspan><tspan class="cls-67" x="0" y="50.4">Г</tspan><tspan x="5.22" y="50.4">ибкая ценовая п</tspan><tspan class="cls-68" x="105.95" y="50.4">о</tspan><tspan x="113.61" y="50.4">литика для оп</tspan><tspan class="cls-69" x="200.1" y="50.4">т</tspan><tspan class="cls-57" x="206.05" y="50.4">овых заказчи</tspan><tspan class="cls-70" x="287.56" y="50.4">к</tspan><tspan x="294.19" y="50.4">ов и по</tspan><tspan class="cls-71" x="338.84" y="50.4">с</tspan><tspan class="cls-72" x="345.58" y="50.4">т</tspan><tspan class="cls-73" x="351.53" y="50.4">о</tspan><tspan x="359.15" y="50.4">янных па</tspan><tspan class="cls-74" x="414.81" y="50.4">р</tspan><tspan x="422.35" y="50.4">тнеров</tspan><tspan class="cls-66" x="466.17" y="50.4">.</tspan></text><text class="cls-48" transform="translate(510.56 597.18)">Мно<tspan class="cls-72" x="28.17" y="0">г</tspan><tspan class="cls-74" x="33.03" y="0">о</tspan><tspan x="40.68" y="0">л</tspan><tspan class="cls-75" x="48.13" y="0">е</tspan><tspan x="55.29" y="0">тний опыт на рын</tspan><tspan class="cls-76" x="163.99" y="0">к</tspan><tspan x="170.63" y="0">е по</tspan><tspan class="cls-77" x="196.67" y="0">с</tspan><tspan class="cls-60" x="203.42" y="0">тавок </tspan><tspan class="cls-76" x="240.97" y="0">к</tspan><tspan x="247.6" y="0">омплек</tspan><tspan class="cls-78" x="293.67" y="0">т</tspan><tspan x="300" y="0">ующих и об</tspan><tspan class="cls-71" x="372.62" y="0">е</tspan><tspan x="379.82" y="0">спечения ин</tspan><tspan class="cls-76" x="456.91" y="0">ж</tspan><tspan x="466.08" y="0">енерных решений</tspan><tspan class="cls-66" x="579.14" y="0">.</tspan><tspan class="cls-79" x="0" y="33.6">Р</tspan><tspan class="cls-80" x="7.8" y="33.6">аб</tspan><tspan class="cls-81" x="22.03" y="33.6">о</tspan><tspan class="cls-80" x="29.72" y="33.6">тае</tspan><tspan x="49.7" y="33.6">м </tspan><tspan class="cls-80" x="61.61" y="33.6">ка</tspan><tspan x="75.08" y="33.6">к с </tspan><tspan class="cls-80" x="95.19" y="33.6">к</tspan><tspan class="cls-82" x="102.19" y="33.6">р</tspan><tspan class="cls-80" x="109.75" y="33.6">упным</tspan><tspan x="150.01" y="33.6">и </tspan><tspan class="cls-80" x="161.07" y="33.6">пр</tspan><tspan class="cls-81" x="176.61" y="33.6">е</tspan><tspan class="cls-80" x="183.67" y="33.6">дприятиям</tspan><tspan x="251.23" y="33.6">и </tspan><tspan class="cls-80" x="262.29" y="33.6">(</tspan><tspan x="266.42" y="33.6">в </tspan><tspan class="cls-83" x="276.49" y="33.6">т</tspan><tspan class="cls-80" x="282.47" y="33.6">о</tspan><tspan x="290.41" y="33.6">м </tspan><tspan class="cls-80" x="302.32" y="33.6">чи</tspan><tspan class="cls-84" x="317.04" y="33.6">с</tspan><tspan class="cls-80" x="323.78" y="33.6">л</tspan><tspan x="331.26" y="33.6">е </tspan><tspan class="cls-80" x="341.69" y="33.6">об</tspan><tspan class="cls-85" x="357.39" y="33.6">е</tspan><tspan class="cls-80" x="364.62" y="33.6">спечени</tspan><tspan x="416.36" y="33.6">е </tspan><tspan class="cls-80" x="426.79" y="33.6">по</tspan><tspan class="cls-85" x="442.46" y="33.6">с</tspan><tspan class="cls-80" x="449.24" y="33.6">таво</tspan><tspan x="476.79" y="33.6">к </tspan><tspan class="cls-80" x="486.91" y="33.6">пр</tspan><tspan class="cls-81" x="502.46" y="33.6">е</tspan><tspan class="cls-80" x="509.52" y="33.6">дприятия</tspan><tspan x="568.28" y="33.6" xml:space="preserve">м  </tspan><tspan class="cls-80" x="583.34" y="33.6">ВПК)</tspan><tspan class="cls-66" x="615.99" y="33.6">,</tspan><tspan x="618.48" y="33.6" xml:space="preserve">  </tspan><tspan class="cls-80" x="0" y="50.4">та</tspan><tspan x="12.66" y="50.4">к и с </tspan><tspan class="cls-80" x="43.83" y="50.4">малы</tspan><tspan x="75.59" y="50.4">м </tspan><tspan class="cls-80" x="87.51" y="50.4">бизн</tspan><tspan class="cls-85" x="117.51" y="50.4">е</tspan><tspan class="cls-86" x="124.73" y="50.4">с</tspan><tspan class="cls-80" x="131.26" y="50.4">о</tspan><tspan x="139.2" y="50.4">м </tspan><tspan class="cls-80" x="151.12" y="50.4">н</tspan><tspan x="158.92" y="50.4">а </tspan><tspan class="cls-80" x="168.51" y="50.4">вы</tspan><tspan class="cls-87" x="184.48" y="50.4">с</tspan><tspan class="cls-80" x="191" y="50.4">о</tspan><tspan class="cls-86" x="198.94" y="50.4">к</tspan><tspan class="cls-80" x="205.61" y="50.4">о</tspan><tspan x="213.55" y="50.4">м </tspan><tspan class="cls-80" x="225.47" y="50.4">уровн</tspan><tspan x="262.88" y="50.4">е </tspan><tspan class="cls-86" x="273.31" y="50.4">с</tspan><tspan class="cls-80" x="279.83" y="50.4">ервиса</tspan><tspan class="cls-66" x="323.19" y="50.4">.</tspan><tspan x="325.5" y="50.4" xml:space="preserve">  </tspan></text><rect class="cls-88" x="506" y="378" width="298.11" height="31" rx="5.72"/><text class="cls-89" transform="translate(517.11 400.04)">ВАШИ ПРЕИМУЩЕСТВА:</text><rect class="cls-88" x="509.98" y="532.02" width="298.11" height="31" rx="5.72"/><text class="cls-89" transform="translate(536.1 554.05)">НАШИ ДОСТОИНСТВА:</text></g></g></g></svg>